  0
SECTION
  2
HEADER
  9
$ACADVER
  1
AC1015
  9
$ACADMAINTVER
 70
     6
  9
$DWGCODEPAGE
  3
ANSI_1252
  9
$INSBASE
 10
0.0
 20
0.0
 30
0.0
  9
$EXTMIN
 10
0.0
 20
0.0
 30
0.0
  9
$EXTMAX
 10
431.8
 20
279.4
 30
0.0
  9
$LIMMIN
 10
0.0
 20
0.0
  9
$LIMMAX
 10
431.8
 20
279.4
  9
$ORTHOMODE
 70
     0
  9
$REGENMODE
 70
     1
  9
$FILLMODE
 70
     1
  9
$QTEXTMODE
 70
     0
  9
$MIRRTEXT
 70
     1
  9
$LTSCALE
 40
1.0
  9
$ATTMODE
 70
     1
  9
$TEXTSIZE
 40
3.5
  9
$TRACEWID
 40
1.0
  9
$TEXTSTYLE
  7
Standard
  9
$CLAYER
  8
0
  9
$CELTYPE
  6
ByLayer
  9
$CECOLOR
 62
   256
  9
$CELTSCALE
 40
1.0
  9
$DISPSILH
 70
     0
  9
$DIMSCALE
 40
1.0
  9
$DIMASZ
 40
3.302
  9
$DIMEXO
 40
1.0
  9
$DIMDLI
 40
3.75
  9
$DIMRND
 40
0.0
  9
$DIMDLE
 40
0.0
  9
$DIMEXE
 40
1.0
  9
$DIMTP
 40
0.0
  9
$DIMTM
 40
0.0
  9
$DIMTXT
 40
3.5
  9
$DIMCEN
 40
2.5
  9
$DIMTSZ
 40
0.0
  9
$DIMTOL
 70
     0
  9
$DIMLIM
 70
     0
  9
$DIMTIH
 70
     1
  9
$DIMTOH
 70
     1
  9
$DIMSE1
 70
     0
  9
$DIMSE2
 70
     0
  9
$DIMTAD
 70
     1
  9
$DIMZIN
 70
     1
  9
$DIMBLK
  1

  9
$DIMASO
 70
     1
  9
$DIMSHO
 70
     1
  9
$DIMPOST
  1

  9
$DIMAPOST
  1

  9
$DIMALT
 70
     0
  9
$DIMALTD
 70
     3
  9
$DIMALTF
 40
0.0393700787
  9
$DIMLFAC
 40
0.2
  9
$DIMTOFL
 70
     1
  9
$DIMTVP
 40
0.0
  9
$DIMTIX
 70
     0
  9
$DIMSOXD
 70
     0
  9
$DIMSAH
 70
     0
  9
$DIMBLK1
  1

  9
$DIMBLK2
  1

  9
$DIMSTYLE
  2
ISO-25
  9
$DIMCLRD
 70
     0
  9
$DIMCLRE
 70
     0
  9
$DIMCLRT
 70
     0
  9
$DIMTFAC
 40
1.0
  9
$DIMGAP
 40
1.524
  9
$DIMJUST
 70
     0
  9
$DIMSD1
 70
     0
  9
$DIMSD2
 70
     0
  9
$DIMTOLJ
 70
     0
  9
$DIMTZIN
 70
     1
  9
$DIMALTZ
 70
     0
  9
$DIMALTTZ
 70
     0
  9
$DIMUPT
 70
     0
  9
$DIMDEC
 70
     2
  9
$DIMTDEC
 70
     2
  9
$DIMALTU
 70
     2
  9
$DIMALTTD
 70
     3
  9
$DIMTXSTY
  7
Standard
  9
$DIMAUNIT
 70
     0
  9
$DIMADEC
 70
     2
  9
$DIMALTRND
 40
0.0
  9
$DIMAZIN
 70
     0
  9
$DIMDSEP
 70
    44
  9
$DIMATFIT
 70
     3
  9
$DIMFRAC
 70
     0
  9
$DIMLDRBLK
  1

  9
$DIMLUNIT
 70
     2
  9
$DIMLWD
 70
    -2
  9
$DIMLWE
 70
    -2
  9
$DIMTMOVE
 70
     0
  9
$LUNITS
 70
     2
  9
$LUPREC
 70
     2
  9
$SKETCHINC
 40
1.0
  9
$FILLETRAD
 40
0.0
  9
$AUNITS
 70
     0
  9
$AUPREC
 70
     2
  9
$MENU
  1
.
  9
$ELEVATION
 40
0.0
  9
$PELEVATION
 40
0.0
  9
$THICKNESS
 40
0.0
  9
$LIMCHECK
 70
     0
  9
$CHAMFERA
 40
0.0
  9
$CHAMFERB
 40
0.0
  9
$CHAMFERC
 40
0.0
  9
$CHAMFERD
 40
0.0
  9
$SKPOLY
 70
     0
  9
$TDCREATE
 40
2460467.3321886
  9
$TDUCREATE
 40
2460467.040521933
  9
$TDUPDATE
 40
2460467.332188901
  9
$TDUUPDATE
 40
2460467.040522234
  9
$TDINDWG
 40
0.0000000116
  9
$TDUSRTIMER
 40
0.0000000116
  9
$USRTIMER
 70
     1
  9
$ANGBASE
 50
0.0
  9
$ANGDIR
 70
     0
  9
$PDMODE
 70
     0
  9
$PDSIZE
 40
-1.0
  9
$PLINEWID
 40
0.0
  9
$SPLFRAME
 70
     0
  9
$SPLINETYPE
 70
     6
  9
$SPLINESEGS
 70
     8
  9
$HANDSEED
  5
26E
  9
$SURFTAB1
 70
     6
  9
$SURFTAB2
 70
     6
  9
$SURFTYPE
 70
     6
  9
$SURFU
 70
     6
  9
$SURFV
 70
     6
  9
$UCSBASE
  2

  9
$UCSNAME
  2

  9
$UCSORG
 10
0.0
 20
0.0
 30
0.0
  9
$UCSXDIR
 10
1.0
 20
0.0
 30
0.0
  9
$UCSYDIR
 10
0.0
 20
1.0
 30
0.0
  9
$UCSORTHOREF
  2

  9
$UCSORTHOVIEW
 70
     0
  9
$UCSORGTOP
 10
0.0
 20
0.0
 30
0.0
  9
$UCSORGBOTTOM
 10
0.0
 20
0.0
 30
0.0
  9
$UCSORGLEFT
 10
0.0
 20
0.0
 30
0.0
  9
$UCSORGRIGHT
 10
0.0
 20
0.0
 30
0.0
  9
$UCSORGFRONT
 10
0.0
 20
0.0
 30
0.0
  9
$UCSORGBACK
 10
0.0
 20
0.0
 30
0.0
  9
$PUCSBASE
  2

  9
$PUCSNAME
  2

  9
$PUCSORG
 10
0.0
 20
0.0
 30
0.0
  9
$PUCSXDIR
 10
1.0
 20
0.0
 30
0.0
  9
$PUCSYDIR
 10
0.0
 20
1.0
 30
0.0
  9
$PUCSORTHOREF
  2

  9
$PUCSORTHOVIEW
 70
     0
  9
$PUCSORGTOP
 10
0.0
 20
0.0
 30
0.0
  9
$PUCSORGBOTTOM
 10
0.0
 20
0.0
 30
0.0
  9
$PUCSORGLEFT
 10
0.0
 20
0.0
 30
0.0
  9
$PUCSORGRIGHT
 10
0.0
 20
0.0
 30
0.0
  9
$PUCSORGFRONT
 10
0.0
 20
0.0
 30
0.0
  9
$PUCSORGBACK
 10
0.0
 20
0.0
 30
0.0
  9
$USERI1
 70
     0
  9
$USERI2
 70
     0
  9
$USERI3
 70
     0
  9
$USERI4
 70
     0
  9
$USERI5
 70
     0
  9
$USERR1
 40
0.0
  9
$USERR2
 40
0.0
  9
$USERR3
 40
0.0
  9
$USERR4
 40
0.0
  9
$USERR5
 40
0.0
  9
$WORLDVIEW
 70
     1
  9
$SHADEDGE
 70
     3
  9
$SHADEDIF
 70
    70
  9
$TILEMODE
 70
     1
  9
$MAXACTVP
 70
    64
  9
$PINSBASE
 10
0.0
 20
0.0
 30
0.0
  9
$PLIMCHECK
 70
     0
  9
$PEXTMIN
 10
1.0000000000E+20
 20
1.0000000000E+20
 30
1.0000000000E+20
  9
$PEXTMAX
 10
-1.0000000000E+20
 20
-1.0000000000E+20
 30
-1.0000000000E+20
  9
$PLIMMIN
 10
0.0
 20
0.0
  9
$PLIMMAX
 10
420.0
 20
297.0
  9
$UNITMODE
 70
     0
  9
$VISRETAIN
 70
     1
  9
$PLINEGEN
 70
     0
  9
$PSLTSCALE
 70
     1
  9
$TREEDEPTH
 70
  3020
  9
$CMLSTYLE
  2
Standard
  9
$CMLJUST
 70
     0
  9
$CMLSCALE
 40
20.0
  9
$PROXYGRAPHICS
 70
     1
  9
$MEASUREMENT
 70
     1
  9
$CELWEIGHT
370
    -1
  9
$ENDCAPS
280
     0
  9
$JOINSTYLE
280
     0
  9
$LWDISPLAY
290
     1
  9
$INSUNITS
 70
     4
  9
$HYPERLINKBASE
  1

  9
$STYLESHEET
  1

  9
$XEDIT
290
     1
  9
$CEPSNTYPE
380
     0
  9
$PSTYLEMODE
290
     1
  9
$FINGERPRINTGUID
  2
{1f20a352-f0e2-4d24-97a2-65e157045659}
  9
$VERSIONGUID
  2
{FAEB1C32-E019-11D5-929B-00C0DF256EC4}
  9
$EXTNAMES
290
     1
  9
$PSVPSCALE
 40
0.0
  9
$OLESTARTUP
290
     0
  0
ENDSEC
  0
SECTION
  2
CLASSES
  0
CLASS
  1
ACDBDICTIONARYWDFLT
  2
AcDbDictionaryWithDefault
  3
ObjectDBX Classes
 90
        0
280
     0
281
     0
  0
CLASS
  1
VISUALSTYLE
  2
AcDbVisualStyle
  3
ObjectDBX Classes
 90
     4095
280
     0
281
     0
  0
CLASS
  1
MATERIAL
  2
AcDbMaterial
  3
ObjectDBX Classes
 90
     1153
280
     0
281
     0
  0
CLASS
  1
SCALE
  2
AcDbScale
  3
ObjectDBX Classes
 90
     1153
280
     0
281
     0
  0
CLASS
  1
TABLESTYLE
  2
AcDbTableStyle
  3
ObjectDBX Classes
 90
     4095
280
     0
281
     0
  0
CLASS
  1
MLEADERSTYLE
  2
AcDbMLeaderStyle
  3
ACDB_MLEADERSTYLE_CLASS
 90
     4095
280
     0
281
     0
  0
CLASS
  1
SUN
  2
AcDbSun
  3
SCENEOE
 90
     1153
280
     0
281
     0
  0
CLASS
  1
ACDBPLACEHOLDER
  2
AcDbPlaceHolder
  3
ObjectDBX Classes
 90
        0
280
     0
281
     0
  0
CLASS
  1
LAYOUT
  2
AcDbLayout
  3
ObjectDBX Classes
 90
        0
280
     0
281
     0
  0
ENDSEC
  0
SECTION
  2
TABLES
  0
TABLE
  2
VPORT
  5
8
330
0
100
AcDbSymbolTable
 70
     1
  0
VPORT
  5
29
330
8
100
AcDbSymbolTableRecord
100
AcDbViewportTableRecord
  2
*Active
 70
     0
 10
0.0
 20
0.0
 11
1.0
 21
1.0
 12
215.9
 22
139.7
 13
0.0
 23
0.0
 14
10.0
 24
10.0
 15
10.0
 25
10.0
 16
0.0
 26
0.0
 36
1.0
 17
0.0
 27
0.0
 37
0.0
 40
279.4
 41
1.5454545455
 42
50.0
 43
0.0
 44
0.0
 50
0.0
 51
0.0
 71
     0
 72
  2000
 73
     1
 74
     3
 75
     0
 76
     0
 77
     0
 78
     0
281
     0
 65
     1
110
0.0
120
0.0
130
0.0
111
1.0
121
0.0
131
0.0
112
0.0
122
1.0
132
0.0
 79
     0
146
0.0
  0
ENDTAB
  0
TABLE
  2
LTYPE
  5
5
330
0
100
AcDbSymbolTable
 70
     6
  0
LTYPE
  5
14
330
5
100
AcDbSymbolTableRecord
100
AcDbLinetypeTableRecord
  2
ByBlock
 70
     0
  3

 72
    65
 73
     0
 40
0.0
  0
LTYPE
  5
15
330
5
100
AcDbSymbolTableRecord
100
AcDbLinetypeTableRecord
  2
ByLayer
 70
     0
  3

 72
    65
 73
     0
 40
0.0
  0
LTYPE
  5
16
330
5
100
AcDbSymbolTableRecord
100
AcDbLinetypeTableRecord
  2
Continuous
 70
     0
  3
Solid line
 72
    65
 73
     0
 40
0.0
  0
LTYPE
  5
5E
330
5
100
AcDbSymbolTableRecord
100
AcDbLinetypeTableRecord
  2
HIDDEN
 70
     0
  3
Hidden __ __ __ __ __ __ __ __ __ __ __ __ __ __
 72
    65
 73
     2
 40
1.905
 49
1.27
 74
     0
 49
-0.635
 74
     0
  0
LTYPE
  5
5F
330
5
100
AcDbSymbolTableRecord
100
AcDbLinetypeTableRecord
  2
PHANTOM
 70
     0
  3
Phantom ______  __  __  ______  __  __  ______
 72
    65
 73
     6
 40
12.7
 49
6.35
 74
     0
 49
-1.27
 74
     0
 49
1.27
 74
     0
 49
-1.27
 74
     0
 49
1.27
 74
     0
 49
-1.27
 74
     0
  0
LTYPE
  5
60
330
5
100
AcDbSymbolTableRecord
100
AcDbLinetypeTableRecord
  2
CENTER
 70
     0
  3
Center ____ _ ____ _ ____ _ ____ _ ____ _ ____
 72
    65
 73
     4
 40
10.16
 49
6.35
 74
     0
 49
-1.27
 74
     0
 49
1.27
 74
     0
 49
-1.27
 74
     0
  0
LTYPE
  5
61
330
5
100
AcDbSymbolTableRecord
100
AcDbLinetypeTableRecord
  2
CENTERX2
 70
     0
  3
Center (2x) ________  __  ________  __  _____
 72
    65
 73
     4
 40
20.32
 49
12.7
 74
     0
 49
-2.54
 74
     0
 49
2.54
 74
     0
 49
-2.54
 74
     0
  0
LTYPE
  5
62
330
5
100
AcDbSymbolTableRecord
100
AcDbLinetypeTableRecord
  2
DOT2
 70
     0
  3
Dot (.5x) ........................................
 72
    65
 73
     2
 40
0.635
 49
0.0
 74
     0
 49
-0.635
 74
     0
  0
ENDTAB
  0
TABLE
  2
LAYER
  5
2
330
0
100
AcDbSymbolTable
 70
     1
  0
LAYER
  5
10
330
2
100
AcDbSymbolTableRecord
100
AcDbLayerTableRecord
  2
0
 70
     0
 62
     7
  6
Continuous
370
    -3
390
F
  0
ENDTAB
  0
TABLE
  2
STYLE
  5
3
330
0
100
AcDbSymbolTable
 70
     1
  0
STYLE
  5
11
330
3
100
AcDbSymbolTableRecord
100
AcDbTextStyleTableRecord
  2
Standard
 70
     0
 40
0.0
 41
1.0
 50
0.0
 71
     0
 42
3.5
  3
txt
  4

  0
ENDTAB
  0
TABLE
  2
VIEW
  5
6
330
0
100
AcDbSymbolTable
 70
     0
  0
ENDTAB
  0
TABLE
  2
UCS
  5
7
330
0
100
AcDbSymbolTable
 70
     0
  0
ENDTAB
  0
TABLE
  2
APPID
  5
9
330
0
100
AcDbSymbolTable
 70
     1
  0
APPID
  5
12
330
9
100
AcDbSymbolTableRecord
100
AcDbRegAppTableRecord
  2
ACAD
 70
     0
  0
ENDTAB
  0
TABLE
  2
DIMSTYLE
  5
A
330
0
100
AcDbSymbolTable
 70
     1
100
AcDbDimStyleTable
  0
DIMSTYLE
105
27
330
A
100
AcDbSymbolTableRecord
100
AcDbDimStyleTableRecord
  2
ISO-25
 70
     0
 41
2.5
 42
0.625
 43
3.75
 44
1.25
 73
     0
 74
     0
 77
     1
 78
     8
140
2.5
141
2.5
143
0.0393700787
147
0.625
171
     3
172
     1
178
     0
271
     2
272
     2
274
     3
278
    44
283
     0
284
     8
340
11
  0
ENDTAB
  0
TABLE
  2
BLOCK_RECORD
  5
1
330
0
100
AcDbSymbolTable
 70
     1
  0
BLOCK_RECORD
  5
1F
330
1
100
AcDbSymbolTableRecord
100
AcDbBlockTableRecord
  2
*Model_Space
340
22
  0
BLOCK_RECORD
  5
1B
330
1
100
AcDbSymbolTableRecord
100
AcDbBlockTableRecord
  2
*Paper_Space
340
1E
  0
BLOCK_RECORD
  5
23
330
1
100
AcDbSymbolTableRecord
100
AcDbBlockTableRecord
  2
*Paper_Space0
340
26
  0
ENDTAB
  0
ENDSEC
  0
SECTION
  2
BLOCKS
  0
BLOCK
  5
20
330
1F
100
AcDbEntity
  8
0
100
AcDbBlockBegin
  2
*Model_Space
 70
     0
 10
0.0
 20
0.0
 30
0.0
  3
*Model_Space
  1

  0
ENDBLK
  5
21
330
1F
100
AcDbEntity
  8
0
100
AcDbBlockEnd
  0
BLOCK
  5
1C
330
1B
100
AcDbEntity
 67
     1
  8
0
100
AcDbBlockBegin
  2
*Paper_Space
 70
     0
 10
0.0
 20
0.0
 30
0.0
  3
*Paper_Space
  1

  0
ENDBLK
  5
1D
330
1B
100
AcDbEntity
 67
     1
  8
0
100
AcDbBlockEnd
  0
BLOCK
  5
24
330
23
100
AcDbEntity
  8
0
100
AcDbBlockBegin
  2
*Paper_Space0
 70
     0
 10
0.0
 20
0.0
 30
0.0
  3
*Paper_Space0
  1

  0
ENDBLK
  5
25
330
23
100
AcDbEntity
  8
0
100
AcDbBlockEnd
  0
ENDSEC
  0
SECTION
  2
ENTITIES
  0
LINE
  5
63
330
1F
100
AcDbEntity
  8
0
  6
Continuous
 62
     7
370
    25
100
AcDbLine
 10
153.2011357089
 20
157.1310386657
 30
0.0
 11
153.1261357089
 21
157.6310386657
 31
0.0
  0
LINE
  5
64
330
1F
100
AcDbEntity
  8
0
  6
Continuous
 62
     7
370
    25
100
AcDbLine
 10
152.7011357089
 20
157.1310386657
 30
0.0
 11
153.2011357089
 21
157.1310386657
 31
0.0
  0
LINE
  5
65
330
1F
100
AcDbEntity
  8
0
  6
Continuous
 62
     7
370
    25
100
AcDbLine
 10
153.1261357089
 20
157.6310386657
 30
0.0
 11
152.7761357089
 21
157.6310386657
 31
0.0
  0
LINE
  5
66
330
1F
100
AcDbEntity
  8
0
  6
Continuous
 62
     7
370
    25
100
AcDbLine
 10
152.7011357089
 20
157.1310386657
 30
0.0
 11
152.7761357089
 21
157.6310386657
 31
0.0
  0
LINE
  5
67
330
1F
100
AcDbEntity
  8
0
  6
Continuous
 62
     7
370
    25
100
AcDbLine
 10
152.7011357089
 20
157.1310386657
 30
0.0
 11
152.7011357089
 21
151.8810386657
 31
0.0
  0
LINE
  5
68
330
1F
100
AcDbEntity
  8
0
  6
Continuous
 62
     7
370
    25
100
AcDbLine
 10
153.2011357089
 20
157.1310386657
 30
0.0
 11
153.2011357089
 21
151.8810386657
 31
0.0
  0
LINE
  5
69
330
1F
100
AcDbEntity
  8
0
  6
Continuous
 62
     7
370
    25
100
AcDbLine
 10
153.2011357089
 20
151.8810386657
 30
0.0
 11
152.7011357089
 21
151.8810386657
 31
0.0
  0
LINE
  5
6A
330
1F
100
AcDbEntity
  8
0
  6
Continuous
 62
     7
370
    25
100
AcDbLine
 10
155.2411357089
 20
157.1310386657
 30
0.0
 11
155.7411357089
 21
157.1310386657
 31
0.0
  0
LINE
  5
6B
330
1F
100
AcDbEntity
  8
0
  6
Continuous
 62
     7
370
    25
100
AcDbLine
 10
155.7411357089
 20
157.1310386657
 30
0.0
 11
155.7411357089
 21
151.8810386657
 31
0.0
  0
LINE
  5
6C
330
1F
100
AcDbEntity
  8
0
  6
Continuous
 62
     7
370
    25
100
AcDbLine
 10
155.7411357089
 20
151.8810386657
 30
0.0
 11
155.2411357089
 21
151.8810386657
 31
0.0
  0
LINE
  5
6D
330
1F
100
AcDbEntity
  8
0
  6
Continuous
 62
     7
370
    25
100
AcDbLine
 10
155.2411357089
 20
157.1310386657
 30
0.0
 11
155.2411357089
 21
151.8810386657
 31
0.0
  0
LINE
  5
6E
330
1F
100
AcDbEntity
  8
0
  6
Continuous
 62
     7
370
    25
100
AcDbLine
 10
155.7411357089
 20
157.1310386657
 30
0.0
 11
155.6661357089
 21
157.6310386657
 31
0.0
  0
LINE
  5
6F
330
1F
100
AcDbEntity
  8
0
  6
Continuous
 62
     7
370
    25
100
AcDbLine
 10
155.3161357089
 20
157.6310386657
 30
0.0
 11
155.6661357089
 21
157.6310386657
 31
0.0
  0
LINE
  5
70
330
1F
100
AcDbEntity
  8
0
  6
Continuous
 62
     7
370
    25
100
AcDbLine
 10
155.3161357089
 20
157.6310386657
 30
0.0
 11
155.2411357089
 21
157.1310386657
 31
0.0
  0
LINE
  5
71
330
1F
100
AcDbEntity
  8
0
  6
Continuous
 62
     7
370
    25
100
AcDbLine
 10
157.7811357089
 20
157.1310386657
 30
0.0
 11
157.7811357089
 21
151.8810386657
 31
0.0
  0
LINE
  5
72
330
1F
100
AcDbEntity
  8
0
  6
Continuous
 62
     7
370
    25
100
AcDbLine
 10
157.7811357089
 20
157.1310386657
 30
0.0
 11
158.2811357089
 21
157.1310386657
 31
0.0
  0
LINE
  5
73
330
1F
100
AcDbEntity
  8
0
  6
Continuous
 62
     7
370
    25
100
AcDbLine
 10
158.2811357089
 20
151.8810386657
 30
0.0
 11
158.2811357089
 21
157.1310386657
 31
0.0
  0
LINE
  5
74
330
1F
100
AcDbEntity
  8
0
  6
Continuous
 62
     7
370
    25
100
AcDbLine
 10
157.7811357089
 20
151.8810386657
 30
0.0
 11
158.2811357089
 21
151.8810386657
 31
0.0
  0
LINE
  5
75
330
1F
100
AcDbEntity
  8
0
  6
Continuous
 62
     7
370
    25
100
AcDbLine
 10
158.2061357089
 20
157.6310386657
 30
0.0
 11
158.2811357089
 21
157.1310386657
 31
0.0
  0
LINE
  5
76
330
1F
100
AcDbEntity
  8
0
  6
Continuous
 62
     7
370
    25
100
AcDbLine
 10
157.8561357089
 20
157.6310386657
 30
0.0
 11
158.2061357089
 21
157.6310386657
 31
0.0
  0
LINE
  5
77
330
1F
100
AcDbEntity
  8
0
  6
Continuous
 62
     7
370
    25
100
AcDbLine
 10
157.8561357089
 20
157.6310386657
 30
0.0
 11
157.7811357089
 21
157.1310386657
 31
0.0
  0
LINE
  5
78
330
1F
100
AcDbEntity
  8
0
  6
Continuous
 62
     7
370
    25
100
AcDbLine
 10
160.8211357089
 20
157.1310386657
 30
0.0
 11
160.7461357089
 21
157.6310386657
 31
0.0
  0
LINE
  5
79
330
1F
100
AcDbEntity
  8
0
  6
Continuous
 62
     7
370
    25
100
AcDbLine
 10
160.3211357089
 20
157.1310386657
 30
0.0
 11
160.8211357089
 21
157.1310386657
 31
0.0
  0
LINE
  5
7A
330
1F
100
AcDbEntity
  8
0
  6
Continuous
 62
     7
370
    25
100
AcDbLine
 10
160.7461357089
 20
157.6310386657
 30
0.0
 11
160.3961357089
 21
157.6310386657
 31
0.0
  0
LINE
  5
7B
330
1F
100
AcDbEntity
  8
0
  6
Continuous
 62
     7
370
    25
100
AcDbLine
 10
160.3211357089
 20
157.1310386657
 30
0.0
 11
160.3961357089
 21
157.6310386657
 31
0.0
  0
LINE
  5
7C
330
1F
100
AcDbEntity
  8
0
  6
Continuous
 62
     7
370
    25
100
AcDbLine
 10
160.8211357089
 20
157.1310386657
 30
0.0
 11
160.8211357089
 21
151.8810386657
 31
0.0
  0
LINE
  5
7D
330
1F
100
AcDbEntity
  8
0
  6
Continuous
 62
     7
370
    25
100
AcDbLine
 10
160.8211357089
 20
151.8810386657
 30
0.0
 11
160.3211357089
 21
151.8810386657
 31
0.0
  0
LINE
  5
7E
330
1F
100
AcDbEntity
  8
0
  6
Continuous
 62
     7
370
    25
100
AcDbLine
 10
160.3211357089
 20
157.1310386657
 30
0.0
 11
160.3211357089
 21
151.8810386657
 31
0.0
  0
LINE
  5
7F
330
1F
100
AcDbEntity
  8
0
  6
Continuous
 62
     7
370
    25
100
AcDbLine
 10
162.8611357089
 20
157.1310386657
 30
0.0
 11
163.3611357089
 21
157.1310386657
 31
0.0
  0
LINE
  5
80
330
1F
100
AcDbEntity
  8
0
  6
Continuous
 62
     7
370
    25
100
AcDbLine
 10
163.3611357089
 20
157.1310386657
 30
0.0
 11
163.3611357089
 21
151.8810386657
 31
0.0
  0
LINE
  5
81
330
1F
100
AcDbEntity
  8
0
  6
Continuous
 62
     7
370
    25
100
AcDbLine
 10
163.3611357089
 20
151.8810386657
 30
0.0
 11
162.8611357089
 21
151.8810386657
 31
0.0
  0
LINE
  5
82
330
1F
100
AcDbEntity
  8
0
  6
Continuous
 62
     7
370
    25
100
AcDbLine
 10
162.8611357089
 20
157.1310386657
 30
0.0
 11
162.8611357089
 21
151.8810386657
 31
0.0
  0
LINE
  5
83
330
1F
100
AcDbEntity
  8
0
  6
Continuous
 62
     7
370
    25
100
AcDbLine
 10
163.3611357089
 20
157.1310386657
 30
0.0
 11
163.2861357089
 21
157.6310386657
 31
0.0
  0
LINE
  5
84
330
1F
100
AcDbEntity
  8
0
  6
Continuous
 62
     7
370
    25
100
AcDbLine
 10
162.9361357089
 20
157.6310386657
 30
0.0
 11
162.8611357089
 21
157.1310386657
 31
0.0
  0
LINE
  5
85
330
1F
100
AcDbEntity
  8
0
  6
Continuous
 62
     7
370
    25
100
AcDbLine
 10
162.9361357089
 20
157.6310386657
 30
0.0
 11
163.2861357089
 21
157.6310386657
 31
0.0
  0
LINE
  5
86
330
1F
100
AcDbEntity
  8
0
  6
Continuous
 62
     7
370
    25
100
AcDbLine
 10
165.4011357089
 20
157.1310386657
 30
0.0
 11
165.4011357089
 21
151.8810386657
 31
0.0
  0
LINE
  5
87
330
1F
100
AcDbEntity
  8
0
  6
Continuous
 62
     7
370
    25
100
AcDbLine
 10
165.4011357089
 20
157.1310386657
 30
0.0
 11
165.9011357089
 21
157.1310386657
 31
0.0
  0
LINE
  5
88
330
1F
100
AcDbEntity
  8
0
  6
Continuous
 62
     7
370
    25
100
AcDbLine
 10
165.9011357089
 20
151.8810386657
 30
0.0
 11
165.9011357089
 21
157.1310386657
 31
0.0
  0
LINE
  5
89
330
1F
100
AcDbEntity
  8
0
  6
Continuous
 62
     7
370
    25
100
AcDbLine
 10
165.4011357089
 20
151.8810386657
 30
0.0
 11
165.9011357089
 21
151.8810386657
 31
0.0
  0
LINE
  5
8A
330
1F
100
AcDbEntity
  8
0
  6
Continuous
 62
     7
370
    25
100
AcDbLine
 10
165.8261357089
 20
157.6310386657
 30
0.0
 11
165.9011357089
 21
157.1310386657
 31
0.0
  0
LINE
  5
8B
330
1F
100
AcDbEntity
  8
0
  6
Continuous
 62
     7
370
    25
100
AcDbLine
 10
165.4761357089
 20
157.6310386657
 30
0.0
 11
165.8261357089
 21
157.6310386657
 31
0.0
  0
LINE
  5
8C
330
1F
100
AcDbEntity
  8
0
  6
Continuous
 62
     7
370
    25
100
AcDbLine
 10
165.4761357089
 20
157.6310386657
 30
0.0
 11
165.4011357089
 21
157.1310386657
 31
0.0
  0
LINE
  5
8D
330
1F
100
AcDbEntity
  8
0
  6
Continuous
 62
     7
370
    25
100
AcDbLine
 10
153.4511357089
 20
151.1310386657
 30
0.0
 11
153.4511357089
 21
150.1310386657
 31
0.0
  0
LINE
  5
8E
330
1F
100
AcDbEntity
  8
0
  6
Continuous
 62
     7
370
    25
100
AcDbLine
 10
152.4511357089
 20
151.1310386657
 30
0.0
 11
152.4511357089
 21
150.1310386657
 31
0.0
  0
LINE
  5
8F
330
1F
100
AcDbEntity
  8
0
  6
Continuous
 62
     7
370
    25
100
AcDbLine
 10
153.4511357089
 20
151.1310386657
 30
0.0
 11
152.4511357089
 21
151.1310386657
 31
0.0
  0
LINE
  5
90
330
1F
100
AcDbEntity
  8
0
  6
Continuous
 62
     7
370
    25
100
AcDbLine
 10
152.4511357089
 20
150.1310386657
 30
0.0
 11
153.4511357089
 21
150.1310386657
 31
0.0
  0
LINE
  5
91
330
1F
100
AcDbEntity
  8
0
  6
Continuous
 62
     7
370
    25
100
AcDbLine
 10
153.4511357089
 20
154.1310386657
 30
0.0
 11
153.4511357089
 21
153.1310386657
 31
0.0
  0
LINE
  5
92
330
1F
100
AcDbEntity
  8
0
  6
Continuous
 62
     7
370
    25
100
AcDbLine
 10
152.4511357089
 20
153.1310386657
 30
0.0
 11
152.7011357089
 21
153.1310386657
 31
0.0
  0
LINE
  5
93
330
1F
100
AcDbEntity
  8
0
  6
Continuous
 62
     7
370
    25
100
AcDbLine
 10
153.2011357089
 20
153.1310386657
 30
0.0
 11
153.4511357089
 21
153.1310386657
 31
0.0
  0
LINE
  5
94
330
1F
100
AcDbEntity
  8
0
  6
Continuous
 62
     7
370
    25
100
AcDbLine
 10
152.4511357089
 20
154.1310386657
 30
0.0
 11
152.4511357089
 21
153.1310386657
 31
0.0
  0
LINE
  5
95
330
1F
100
AcDbEntity
  8
0
  6
Continuous
 62
     7
370
    25
100
AcDbLine
 10
153.4511357089
 20
154.1310386657
 30
0.0
 11
153.2011357089
 21
154.1310386657
 31
0.0
  0
LINE
  5
96
330
1F
100
AcDbEntity
  8
0
  6
Continuous
 62
     7
370
    25
100
AcDbLine
 10
152.7011357089
 20
154.1310386657
 30
0.0
 11
152.4511357089
 21
154.1310386657
 31
0.0
  0
LINE
  5
97
330
1F
100
AcDbEntity
  8
0
  6
Continuous
 62
     7
370
    25
100
AcDbLine
 10
154.9911357089
 20
154.1310386657
 30
0.0
 11
154.9911357089
 21
153.1310386657
 31
0.0
  0
LINE
  5
98
330
1F
100
AcDbEntity
  8
0
  6
Continuous
 62
     7
370
    25
100
AcDbLine
 10
155.9911357089
 20
153.1310386657
 30
0.0
 11
155.9911357089
 21
154.1310386657
 31
0.0
  0
LINE
  5
99
330
1F
100
AcDbEntity
  8
0
  6
Continuous
 62
     7
370
    25
100
AcDbLine
 10
154.9911357089
 20
153.1310386657
 30
0.0
 11
155.2411357089
 21
153.1310386657
 31
0.0
  0
LINE
  5
9A
330
1F
100
AcDbEntity
  8
0
  6
Continuous
 62
     7
370
    25
100
AcDbLine
 10
155.7411357089
 20
153.1310386657
 30
0.0
 11
155.9911357089
 21
153.1310386657
 31
0.0
  0
LINE
  5
9B
330
1F
100
AcDbEntity
  8
0
  6
Continuous
 62
     7
370
    25
100
AcDbLine
 10
155.9911357089
 20
154.1310386657
 30
0.0
 11
155.7411357089
 21
154.1310386657
 31
0.0
  0
LINE
  5
9C
330
1F
100
AcDbEntity
  8
0
  6
Continuous
 62
     7
370
    25
100
AcDbLine
 10
155.2411357089
 20
154.1310386657
 30
0.0
 11
154.9911357089
 21
154.1310386657
 31
0.0
  0
LINE
  5
9D
330
1F
100
AcDbEntity
  8
0
  6
Continuous
 62
     7
370
    25
100
AcDbLine
 10
154.9911357089
 20
150.1310386657
 30
0.0
 11
154.9911357089
 21
151.1310386657
 31
0.0
  0
LINE
  5
9E
330
1F
100
AcDbEntity
  8
0
  6
Continuous
 62
     7
370
    25
100
AcDbLine
 10
154.9911357089
 20
151.1310386657
 30
0.0
 11
155.9911357089
 21
151.1310386657
 31
0.0
  0
LINE
  5
9F
330
1F
100
AcDbEntity
  8
0
  6
Continuous
 62
     7
370
    25
100
AcDbLine
 10
155.9911357089
 20
151.1310386657
 30
0.0
 11
155.9911357089
 21
150.1310386657
 31
0.0
  0
LINE
  5
A0
330
1F
100
AcDbEntity
  8
0
  6
Continuous
 62
     7
370
    25
100
AcDbLine
 10
155.9911357089
 20
150.1310386657
 30
0.0
 11
154.9911357089
 21
150.1310386657
 31
0.0
  0
LINE
  5
A1
330
1F
100
AcDbEntity
  8
0
  6
Continuous
 62
     7
370
    25
100
AcDbLine
 10
158.5311357089
 20
154.1310386657
 30
0.0
 11
158.5311357089
 21
153.1310386657
 31
0.0
  0
LINE
  5
A2
330
1F
100
AcDbEntity
  8
0
  6
Continuous
 62
     7
370
    25
100
AcDbLine
 10
158.5311357089
 20
153.1310386657
 30
0.0
 11
158.2811357089
 21
153.1310386657
 31
0.0
  0
LINE
  5
A3
330
1F
100
AcDbEntity
  8
0
  6
Continuous
 62
     7
370
    25
100
AcDbLine
 10
157.7811357089
 20
153.1310386657
 30
0.0
 11
157.5311357089
 21
153.1310386657
 31
0.0
  0
LINE
  5
A4
330
1F
100
AcDbEntity
  8
0
  6
Continuous
 62
     7
370
    25
100
AcDbLine
 10
157.5311357089
 20
153.1310386657
 30
0.0
 11
157.5311357089
 21
154.1310386657
 31
0.0
  0
LINE
  5
A5
330
1F
100
AcDbEntity
  8
0
  6
Continuous
 62
     7
370
    25
100
AcDbLine
 10
157.5311357089
 20
154.1310386657
 30
0.0
 11
157.7811357089
 21
154.1310386657
 31
0.0
  0
LINE
  5
A6
330
1F
100
AcDbEntity
  8
0
  6
Continuous
 62
     7
370
    25
100
AcDbLine
 10
158.2811357089
 20
154.1310386657
 30
0.0
 11
158.5311357089
 21
154.1310386657
 31
0.0
  0
LINE
  5
A7
330
1F
100
AcDbEntity
  8
0
  6
Continuous
 62
     7
370
    25
100
AcDbLine
 10
158.5311357089
 20
150.1310386657
 30
0.0
 11
158.5311357089
 21
151.1310386657
 31
0.0
  0
LINE
  5
A8
330
1F
100
AcDbEntity
  8
0
  6
Continuous
 62
     7
370
    25
100
AcDbLine
 10
158.5311357089
 20
151.1310386657
 30
0.0
 11
157.5311357089
 21
151.1310386657
 31
0.0
  0
LINE
  5
A9
330
1F
100
AcDbEntity
  8
0
  6
Continuous
 62
     7
370
    25
100
AcDbLine
 10
157.5311357089
 20
151.1310386657
 30
0.0
 11
157.5311357089
 21
150.1310386657
 31
0.0
  0
LINE
  5
AA
330
1F
100
AcDbEntity
  8
0
  6
Continuous
 62
     7
370
    25
100
AcDbLine
 10
157.5311357089
 20
150.1310386657
 30
0.0
 11
158.5311357089
 21
150.1310386657
 31
0.0
  0
LINE
  5
AB
330
1F
100
AcDbEntity
  8
0
  6
Continuous
 62
     7
370
    25
100
AcDbLine
 10
161.0711357089
 20
151.1310386657
 30
0.0
 11
161.0711357089
 21
150.1310386657
 31
0.0
  0
LINE
  5
AC
330
1F
100
AcDbEntity
  8
0
  6
Continuous
 62
     7
370
    25
100
AcDbLine
 10
161.0711357089
 20
151.1310386657
 30
0.0
 11
160.0711357089
 21
151.1310386657
 31
0.0
  0
LINE
  5
AD
330
1F
100
AcDbEntity
  8
0
  6
Continuous
 62
     7
370
    25
100
AcDbLine
 10
160.0711357089
 20
151.1310386657
 30
0.0
 11
160.0711357089
 21
150.1310386657
 31
0.0
  0
LINE
  5
AE
330
1F
100
AcDbEntity
  8
0
  6
Continuous
 62
     7
370
    25
100
AcDbLine
 10
160.0711357089
 20
150.1310386657
 30
0.0
 11
161.0711357089
 21
150.1310386657
 31
0.0
  0
LINE
  5
AF
330
1F
100
AcDbEntity
  8
0
  6
Continuous
 62
     7
370
    25
100
AcDbLine
 10
161.0711357089
 20
154.1310386657
 30
0.0
 11
161.0711357089
 21
153.1310386657
 31
0.0
  0
LINE
  5
B0
330
1F
100
AcDbEntity
  8
0
  6
Continuous
 62
     7
370
    25
100
AcDbLine
 10
160.0711357089
 20
153.1310386657
 30
0.0
 11
160.3211357089
 21
153.1310386657
 31
0.0
  0
LINE
  5
B1
330
1F
100
AcDbEntity
  8
0
  6
Continuous
 62
     7
370
    25
100
AcDbLine
 10
160.8211357089
 20
153.1310386657
 30
0.0
 11
161.0711357089
 21
153.1310386657
 31
0.0
  0
LINE
  5
B2
330
1F
100
AcDbEntity
  8
0
  6
Continuous
 62
     7
370
    25
100
AcDbLine
 10
160.0711357089
 20
154.1310386657
 30
0.0
 11
160.0711357089
 21
153.1310386657
 31
0.0
  0
LINE
  5
B3
330
1F
100
AcDbEntity
  8
0
  6
Continuous
 62
     7
370
    25
100
AcDbLine
 10
161.0711357089
 20
154.1310386657
 30
0.0
 11
160.8211357089
 21
154.1310386657
 31
0.0
  0
LINE
  5
B4
330
1F
100
AcDbEntity
  8
0
  6
Continuous
 62
     7
370
    25
100
AcDbLine
 10
160.3211357089
 20
154.1310386657
 30
0.0
 11
160.0711357089
 21
154.1310386657
 31
0.0
  0
LINE
  5
B5
330
1F
100
AcDbEntity
  8
0
  6
Continuous
 62
     7
370
    25
100
AcDbLine
 10
163.6111357089
 20
153.1310386657
 30
0.0
 11
163.6111357089
 21
154.1310386657
 31
0.0
  0
LINE
  5
B6
330
1F
100
AcDbEntity
  8
0
  6
Continuous
 62
     7
370
    25
100
AcDbLine
 10
162.6111357089
 20
154.1310386657
 30
0.0
 11
162.6111357089
 21
153.1310386657
 31
0.0
  0
LINE
  5
B7
330
1F
100
AcDbEntity
  8
0
  6
Continuous
 62
     7
370
    25
100
AcDbLine
 10
162.6111357089
 20
153.1310386657
 30
0.0
 11
162.8611357089
 21
153.1310386657
 31
0.0
  0
LINE
  5
B8
330
1F
100
AcDbEntity
  8
0
  6
Continuous
 62
     7
370
    25
100
AcDbLine
 10
163.3611357089
 20
153.1310386657
 30
0.0
 11
163.6111357089
 21
153.1310386657
 31
0.0
  0
LINE
  5
B9
330
1F
100
AcDbEntity
  8
0
  6
Continuous
 62
     7
370
    25
100
AcDbLine
 10
163.6111357089
 20
154.1310386657
 30
0.0
 11
163.3611357089
 21
154.1310386657
 31
0.0
  0
LINE
  5
BA
330
1F
100
AcDbEntity
  8
0
  6
Continuous
 62
     7
370
    25
100
AcDbLine
 10
162.8611357089
 20
154.1310386657
 30
0.0
 11
162.6111357089
 21
154.1310386657
 31
0.0
  0
LINE
  5
BB
330
1F
100
AcDbEntity
  8
0
  6
Continuous
 62
     7
370
    25
100
AcDbLine
 10
162.6111357089
 20
150.1310386657
 30
0.0
 11
162.6111357089
 21
151.1310386657
 31
0.0
  0
LINE
  5
BC
330
1F
100
AcDbEntity
  8
0
  6
Continuous
 62
     7
370
    25
100
AcDbLine
 10
162.6111357089
 20
151.1310386657
 30
0.0
 11
163.6111357089
 21
151.1310386657
 31
0.0
  0
LINE
  5
BD
330
1F
100
AcDbEntity
  8
0
  6
Continuous
 62
     7
370
    25
100
AcDbLine
 10
163.6111357089
 20
151.1310386657
 30
0.0
 11
163.6111357089
 21
150.1310386657
 31
0.0
  0
LINE
  5
BE
330
1F
100
AcDbEntity
  8
0
  6
Continuous
 62
     7
370
    25
100
AcDbLine
 10
163.6111357089
 20
150.1310386657
 30
0.0
 11
162.6111357089
 21
150.1310386657
 31
0.0
  0
LINE
  5
BF
330
1F
100
AcDbEntity
  8
0
  6
Continuous
 62
     7
370
    25
100
AcDbLine
 10
166.1511357089
 20
154.1310386657
 30
0.0
 11
166.1511357089
 21
153.1310386657
 31
0.0
  0
LINE
  5
C0
330
1F
100
AcDbEntity
  8
0
  6
Continuous
 62
     7
370
    25
100
AcDbLine
 10
166.1511357089
 20
153.1310386657
 30
0.0
 11
165.9011357089
 21
153.1310386657
 31
0.0
  0
LINE
  5
C1
330
1F
100
AcDbEntity
  8
0
  6
Continuous
 62
     7
370
    25
100
AcDbLine
 10
165.4011357089
 20
153.1310386657
 30
0.0
 11
165.1511357089
 21
153.1310386657
 31
0.0
  0
LINE
  5
C2
330
1F
100
AcDbEntity
  8
0
  6
Continuous
 62
     7
370
    25
100
AcDbLine
 10
165.1511357089
 20
153.1310386657
 30
0.0
 11
165.1511357089
 21
154.1310386657
 31
0.0
  0
LINE
  5
C3
330
1F
100
AcDbEntity
  8
0
  6
Continuous
 62
     7
370
    25
100
AcDbLine
 10
165.1511357089
 20
154.1310386657
 30
0.0
 11
165.4011357089
 21
154.1310386657
 31
0.0
  0
LINE
  5
C4
330
1F
100
AcDbEntity
  8
0
  6
Continuous
 62
     7
370
    25
100
AcDbLine
 10
165.9011357089
 20
154.1310386657
 30
0.0
 11
166.1511357089
 21
154.1310386657
 31
0.0
  0
LINE
  5
C5
330
1F
100
AcDbEntity
  8
0
  6
Continuous
 62
     7
370
    25
100
AcDbLine
 10
166.1511357089
 20
150.1310386657
 30
0.0
 11
166.1511357089
 21
151.1310386657
 31
0.0
  0
LINE
  5
C6
330
1F
100
AcDbEntity
  8
0
  6
Continuous
 62
     7
370
    25
100
AcDbLine
 10
165.1511357089
 20
151.1310386657
 30
0.0
 11
165.1511357089
 21
150.1310386657
 31
0.0
  0
LINE
  5
C7
330
1F
100
AcDbEntity
  8
0
  6
Continuous
 62
     7
370
    25
100
AcDbLine
 10
166.1511357089
 20
151.1310386657
 30
0.0
 11
165.1511357089
 21
151.1310386657
 31
0.0
  0
LINE
  5
C8
330
1F
100
AcDbEntity
  8
0
  6
Continuous
 62
     7
370
    25
100
AcDbLine
 10
165.1511357089
 20
150.1310386657
 30
0.0
 11
166.1511357089
 21
150.1310386657
 31
0.0
  0
LINE
  5
C9
330
1F
100
AcDbEntity
  8
0
  6
Continuous
 62
     7
370
    25
100
AcDbLine
 10
159.1511357089
 20
151.1264197032
 30
0.0
 11
159.4511357089
 21
151.1264197032
 31
0.0
  0
LINE
  5
CA
330
1F
100
AcDbEntity
  8
0
  6
Continuous
 62
     7
370
    25
100
AcDbLine
 10
158.8511357089
 20
150.1310386657
 30
0.0
 11
159.1511357089
 21
151.1264197032
 31
0.0
  0
LINE
  5
CB
330
1F
100
AcDbEntity
  8
0
  6
Continuous
 62
     7
370
    25
100
AcDbLine
 10
156.90974359
 20
151.1310386657
 30
0.0
 11
157.2111357089
 21
150.1310386657
 31
0.0
  0
LINE
  5
CC
330
1F
100
AcDbEntity
  8
0
  6
Continuous
 62
     7
370
    25
100
AcDbLine
 10
156.6125278278
 20
151.1310386657
 30
0.0
 11
156.90974359
 21
151.1310386657
 31
0.0
  0
LINE
  5
CD
330
1F
100
AcDbEntity
  8
0
  6
Continuous
 62
     7
370
    25
100
AcDbLine
 10
156.3111357089
 20
150.1310386657
 30
0.0
 11
156.6125278278
 21
151.1310386657
 31
0.0
  0
LINE
  5
CE
330
1F
100
AcDbEntity
  8
0
  6
Continuous
 62
     7
370
    25
100
AcDbLine
 10
154.3711357089
 20
151.1264197032
 30
0.0
 11
154.6711357089
 21
150.1310386657
 31
0.0
  0
LINE
  5
CF
330
1F
100
AcDbEntity
  8
0
  6
Continuous
 62
     7
370
    25
100
AcDbLine
 10
154.0711357089
 20
151.1264197032
 30
0.0
 11
154.3711357089
 21
151.1264197032
 31
0.0
  0
LINE
  5
D0
330
1F
100
AcDbEntity
  8
0
  6
Continuous
 62
     7
370
    25
100
AcDbLine
 10
153.7711357089
 20
150.1310386657
 30
0.0
 11
154.0711357089
 21
151.1264197032
 31
0.0
  0
LINE
  5
D1
330
1F
100
AcDbEntity
  8
0
  6
Continuous
 62
     7
370
    25
100
AcDbLine
 10
151.8311357089
 20
151.1264197032
 30
0.0
 11
152.1311357089
 21
150.1310386657
 31
0.0
  0
LINE
  5
D2
330
1F
100
AcDbEntity
  8
0
  6
Continuous
 62
     7
370
    25
100
AcDbLine
 10
151.8311357089
 20
153.1356576281
 30
0.0
 11
151.8311357089
 21
151.1264197032
 31
0.0
  0
LINE
  5
D3
330
1F
100
AcDbEntity
  8
0
  6
Continuous
 62
     7
370
    25
100
AcDbLine
 10
152.1311357089
 20
154.1310386657
 30
0.0
 11
151.8311357089
 21
153.1356576281
 31
0.0
  0
LINE
  5
D4
330
1F
100
AcDbEntity
  8
0
  6
Continuous
 62
     7
370
    25
100
AcDbLine
 10
154.0711357089
 20
153.1356576281
 30
0.0
 11
153.7711357089
 21
154.1310386657
 31
0.0
  0
LINE
  5
D5
330
1F
100
AcDbEntity
  8
0
  6
Continuous
 62
     7
370
    25
100
AcDbLine
 10
154.3711357089
 20
153.1356576281
 30
0.0
 11
154.0711357089
 21
153.1356576281
 31
0.0
  0
LINE
  5
D6
330
1F
100
AcDbEntity
  8
0
  6
Continuous
 62
     7
370
    25
100
AcDbLine
 10
154.6711357089
 20
154.1310386657
 30
0.0
 11
154.3711357089
 21
153.1356576281
 31
0.0
  0
LINE
  5
D7
330
1F
100
AcDbEntity
  8
0
  6
Continuous
 62
     7
370
    25
100
AcDbLine
 10
156.6125278278
 20
153.1310386657
 30
0.0
 11
156.3111357089
 21
154.1310386657
 31
0.0
  0
LINE
  5
D8
330
1F
100
AcDbEntity
  8
0
  6
Continuous
 62
     7
370
    25
100
AcDbLine
 10
156.90974359
 20
153.1310386657
 30
0.0
 11
156.6125278278
 21
153.1310386657
 31
0.0
  0
LINE
  5
D9
330
1F
100
AcDbEntity
  8
0
  6
Continuous
 62
     7
370
    25
100
AcDbLine
 10
157.2111357089
 20
154.1310386657
 30
0.0
 11
156.90974359
 21
153.1310386657
 31
0.0
  0
LINE
  5
DA
330
1F
100
AcDbEntity
  8
0
  6
Continuous
 62
     7
370
    25
100
AcDbLine
 10
159.1511357089
 20
153.1356576281
 30
0.0
 11
158.8511357089
 21
154.1310386657
 31
0.0
  0
LINE
  5
DB
330
1F
100
AcDbEntity
  8
0
  6
Continuous
 62
     7
370
    25
100
AcDbLine
 10
159.4511357089
 20
153.1356576281
 30
0.0
 11
159.1511357089
 21
153.1356576281
 31
0.0
  0
LINE
  5
DC
330
1F
100
AcDbEntity
  8
0
  6
Continuous
 62
     7
370
    25
100
AcDbLine
 10
159.7511357089
 20
154.1310386657
 30
0.0
 11
159.4511357089
 21
153.1356576281
 31
0.0
  0
LINE
  5
DD
330
1F
100
AcDbEntity
  8
0
  6
Continuous
 62
     7
370
    25
100
AcDbLine
 10
161.6911357089
 20
153.1356576281
 30
0.0
 11
161.3911357089
 21
154.1310386657
 31
0.0
  0
LINE
  5
DE
330
1F
100
AcDbEntity
  8
0
  6
Continuous
 62
     7
370
    25
100
AcDbLine
 10
161.9911357089
 20
153.1356576281
 30
0.0
 11
161.6911357089
 21
153.1356576281
 31
0.0
  0
LINE
  5
DF
330
1F
100
AcDbEntity
  8
0
  6
Continuous
 62
     7
370
    25
100
AcDbLine
 10
162.2911357089
 20
154.1310386657
 30
0.0
 11
161.9911357089
 21
153.1356576281
 31
0.0
  0
LINE
  5
E0
330
1F
100
AcDbEntity
  8
0
  6
Continuous
 62
     7
370
    25
100
AcDbLine
 10
164.2325278278
 20
153.1310386657
 30
0.0
 11
163.9311357089
 21
154.1310386657
 31
0.0
  0
LINE
  5
E1
330
1F
100
AcDbEntity
  8
0
  6
Continuous
 62
     7
370
    25
100
AcDbLine
 10
164.52974359
 20
153.1310386657
 30
0.0
 11
164.2325278278
 21
153.1310386657
 31
0.0
  0
LINE
  5
E2
330
1F
100
AcDbEntity
  8
0
  6
Continuous
 62
     7
370
    25
100
AcDbLine
 10
164.8311357089
 20
154.1310386657
 30
0.0
 11
164.52974359
 21
153.1310386657
 31
0.0
  0
LINE
  5
E3
330
1F
100
AcDbEntity
  8
0
  6
Continuous
 62
     7
370
    25
100
AcDbLine
 10
166.7711357089
 20
153.1356576281
 30
0.0
 11
166.4711357089
 21
154.1310386657
 31
0.0
  0
LINE
  5
E4
330
1F
100
AcDbEntity
  8
0
  6
Continuous
 62
     7
370
    25
100
AcDbLine
 10
166.7711357089
 20
153.1356576281
 30
0.0
 11
166.7711357089
 21
151.1264197032
 31
0.0
  0
LINE
  5
E5
330
1F
100
AcDbEntity
  8
0
  6
Continuous
 62
     7
370
    25
100
AcDbLine
 10
166.4711357089
 20
150.1310386657
 30
0.0
 11
166.7711357089
 21
151.1264197032
 31
0.0
  0
LINE
  5
E6
330
1F
100
AcDbEntity
  8
0
  6
Continuous
 62
     7
370
    25
100
AcDbLine
 10
164.52974359
 20
151.1310386657
 30
0.0
 11
164.8311357089
 21
150.1310386657
 31
0.0
  0
LINE
  5
E7
330
1F
100
AcDbEntity
  8
0
  6
Continuous
 62
     7
370
    25
100
AcDbLine
 10
164.2325278278
 20
151.1310386657
 30
0.0
 11
164.52974359
 21
151.1310386657
 31
0.0
  0
LINE
  5
E8
330
1F
100
AcDbEntity
  8
0
  6
Continuous
 62
     7
370
    25
100
AcDbLine
 10
163.9311357089
 20
150.1310386657
 30
0.0
 11
164.2325278278
 21
151.1310386657
 31
0.0
  0
LINE
  5
E9
330
1F
100
AcDbEntity
  8
0
  6
Continuous
 62
     7
370
    25
100
AcDbLine
 10
161.9911357089
 20
151.1264197032
 30
0.0
 11
162.2911357089
 21
150.1310386657
 31
0.0
  0
LINE
  5
EA
330
1F
100
AcDbEntity
  8
0
  6
Continuous
 62
     7
370
    25
100
AcDbLine
 10
161.6911357089
 20
151.1264197032
 30
0.0
 11
161.9911357089
 21
151.1264197032
 31
0.0
  0
LINE
  5
EB
330
1F
100
AcDbEntity
  8
0
  6
Continuous
 62
     7
370
    25
100
AcDbLine
 10
161.3911357089
 20
150.1310386657
 30
0.0
 11
161.6911357089
 21
151.1264197032
 31
0.0
  0
LINE
  5
EC
330
1F
100
AcDbEntity
  8
0
  6
Continuous
 62
     7
370
    25
100
AcDbLine
 10
159.4511357089
 20
151.1264197032
 30
0.0
 11
159.7511357089
 21
150.1310386657
 31
0.0
  0
LINE
  5
ED
330
1F
100
AcDbEntity
  8
0
  6
Continuous
 62
     7
370
    25
100
AcDbLine
 10
166.4711357089
 20
150.1310386657
 30
0.0
 11
166.1511357089
 21
150.1310386657
 31
0.0
  0
LINE
  5
EE
330
1F
100
AcDbEntity
  8
0
  6
Continuous
 62
     7
370
    25
100
AcDbLine
 10
165.1511357089
 20
150.1310386657
 30
0.0
 11
164.8311357089
 21
150.1310386657
 31
0.0
  0
LINE
  5
EF
330
1F
100
AcDbEntity
  8
0
  6
Continuous
 62
     7
370
    25
100
AcDbLine
 10
165.1511357089
 20
154.1310386657
 30
0.0
 11
164.8311357089
 21
154.1310386657
 31
0.0
  0
LINE
  5
F0
330
1F
100
AcDbEntity
  8
0
  6
Continuous
 62
     7
370
    25
100
AcDbLine
 10
166.4711357089
 20
154.1310386657
 30
0.0
 11
166.1511357089
 21
154.1310386657
 31
0.0
  0
LINE
  5
F1
330
1F
100
AcDbEntity
  8
0
  6
Continuous
 62
     7
370
    25
100
AcDbLine
 10
163.9311357089
 20
150.1310386657
 30
0.0
 11
163.6111357089
 21
150.1310386657
 31
0.0
  0
LINE
  5
F2
330
1F
100
AcDbEntity
  8
0
  6
Continuous
 62
     7
370
    25
100
AcDbLine
 10
162.6111357089
 20
150.1310386657
 30
0.0
 11
162.2911357089
 21
150.1310386657
 31
0.0
  0
LINE
  5
F3
330
1F
100
AcDbEntity
  8
0
  6
Continuous
 62
     7
370
    25
100
AcDbLine
 10
162.6111357089
 20
154.1310386657
 30
0.0
 11
162.2911357089
 21
154.1310386657
 31
0.0
  0
LINE
  5
F4
330
1F
100
AcDbEntity
  8
0
  6
Continuous
 62
     7
370
    25
100
AcDbLine
 10
163.9311357089
 20
154.1310386657
 30
0.0
 11
163.6111357089
 21
154.1310386657
 31
0.0
  0
LINE
  5
F5
330
1F
100
AcDbEntity
  8
0
  6
Continuous
 62
     7
370
    25
100
AcDbLine
 10
161.0711357089
 20
150.1310386657
 30
0.0
 11
161.3911357089
 21
150.1310386657
 31
0.0
  0
LINE
  5
F6
330
1F
100
AcDbEntity
  8
0
  6
Continuous
 62
     7
370
    25
100
AcDbLine
 10
159.7511357089
 20
150.1310386657
 30
0.0
 11
160.0711357089
 21
150.1310386657
 31
0.0
  0
LINE
  5
F7
330
1F
100
AcDbEntity
  8
0
  6
Continuous
 62
     7
370
    25
100
AcDbLine
 10
160.0711357089
 20
154.1310386657
 30
0.0
 11
159.7511357089
 21
154.1310386657
 31
0.0
  0
LINE
  5
F8
330
1F
100
AcDbEntity
  8
0
  6
Continuous
 62
     7
370
    25
100
AcDbLine
 10
161.3911357089
 20
154.1310386657
 30
0.0
 11
161.0711357089
 21
154.1310386657
 31
0.0
  0
LINE
  5
F9
330
1F
100
AcDbEntity
  8
0
  6
Continuous
 62
     7
370
    25
100
AcDbLine
 10
158.8511357089
 20
150.1310386657
 30
0.0
 11
158.5311357089
 21
150.1310386657
 31
0.0
  0
LINE
  5
FA
330
1F
100
AcDbEntity
  8
0
  6
Continuous
 62
     7
370
    25
100
AcDbLine
 10
157.5311357089
 20
150.1310386657
 30
0.0
 11
157.2111357089
 21
150.1310386657
 31
0.0
  0
LINE
  5
FB
330
1F
100
AcDbEntity
  8
0
  6
Continuous
 62
     7
370
    25
100
AcDbLine
 10
157.5311357089
 20
154.1310386657
 30
0.0
 11
157.2111357089
 21
154.1310386657
 31
0.0
  0
LINE
  5
FC
330
1F
100
AcDbEntity
  8
0
  6
Continuous
 62
     7
370
    25
100
AcDbLine
 10
158.8511357089
 20
154.1310386657
 30
0.0
 11
158.5311357089
 21
154.1310386657
 31
0.0
  0
LINE
  5
FD
330
1F
100
AcDbEntity
  8
0
  6
Continuous
 62
     7
370
    25
100
AcDbLine
 10
154.9911357089
 20
154.1310386657
 30
0.0
 11
154.6711357089
 21
154.1310386657
 31
0.0
  0
LINE
  5
FE
330
1F
100
AcDbEntity
  8
0
  6
Continuous
 62
     7
370
    25
100
AcDbLine
 10
156.3111357089
 20
154.1310386657
 30
0.0
 11
155.9911357089
 21
154.1310386657
 31
0.0
  0
LINE
  5
FF
330
1F
100
AcDbEntity
  8
0
  6
Continuous
 62
     7
370
    25
100
AcDbLine
 10
156.3111357089
 20
150.1310386657
 30
0.0
 11
155.9911357089
 21
150.1310386657
 31
0.0
  0
LINE
  5
100
330
1F
100
AcDbEntity
  8
0
  6
Continuous
 62
     7
370
    25
100
AcDbLine
 10
154.9911357089
 20
150.1310386657
 30
0.0
 11
154.6711357089
 21
150.1310386657
 31
0.0
  0
LINE
  5
101
330
1F
100
AcDbEntity
  8
0
  6
Continuous
 62
     7
370
    25
100
AcDbLine
 10
153.4511357089
 20
150.1310386657
 30
0.0
 11
153.7711357089
 21
150.1310386657
 31
0.0
  0
LINE
  5
102
330
1F
100
AcDbEntity
  8
0
  6
Continuous
 62
     7
370
    25
100
AcDbLine
 10
152.1311357089
 20
150.1310386657
 30
0.0
 11
152.4511357089
 21
150.1310386657
 31
0.0
  0
LINE
  5
103
330
1F
100
AcDbEntity
  8
0
  6
Continuous
 62
     7
370
    25
100
AcDbLine
 10
152.4511357089
 20
154.1310386657
 30
0.0
 11
152.1311357089
 21
154.1310386657
 31
0.0
  0
LINE
  5
104
330
1F
100
AcDbEntity
  8
0
  6
Continuous
 62
     7
370
    25
100
AcDbLine
 10
153.7711357089
 20
154.1310386657
 30
0.0
 11
153.4511357089
 21
154.1310386657
 31
0.0
  0
SPLINE
  5
105
330
1F
100
AcDbEntity
  8
0
  6
Continuous
 62
     7
370
    25
100
AcDbSpline
210
0.0
220
0.0
230
1.0
 70
     8
 71
     3
 72
     9
 73
     5
 74
     0
 42
0.00000001
 43
0.00000001
 40
0.0
 40
0.0
 40
0.0
 40
0.0
 40
0.941648986472549
 40
1.0
 40
1.0
 40
1.0
 40
1.0
 10
161.9889453709964
 20
150.9188551614784
 30
0.0
 10
162.0098293783346
 20
150.9192454889955
 30
0.0
 10
162.0320075016462
 20
150.919660003876
 30
0.0
 10
162.0483600365261
 20
150.9326302424217
 30
0.0
 10
162.0493142235101
 20
150.9333870689865
 30
0.0
  0
SPLINE
  5
106
330
1F
100
AcDbEntity
  8
0
  6
Continuous
 62
     7
370
    25
100
AcDbSpline
210
0.0
220
0.0
230
1.0
 70
     8
 71
     3
 72
    11
 73
     7
 74
     0
 42
0.00000001
 43
0.00000001
 40
0.0
 40
0.0
 40
0.0
 40
0.0
 40
0.2800501744346331
 40
0.5591657137139396
 40
0.7795831368803361
 40
1.0
 40
1.0
 40
1.0
 40
1.0
 10
161.8722361362207
 20
151.013833793957
 30
0.0
 10
161.8763297496666
 20
150.9988845114221
 30
0.0
 10
161.8845033145955
 20
150.9690358378584
 30
0.0
 10
161.9168278894285
 20
150.9387893034602
 30
0.0
 10
161.9528300745164
 20
150.9219409386455
 30
0.0
 10
161.9769069490323
 20
150.9198837529963
 30
0.0
 10
161.9889453709964
 20
150.9188551614784
 30
0.0
  0
LINE
  5
107
330
1F
100
AcDbEntity
  8
0
  6
Continuous
 62
     7
370
    25
100
AcDbLine
 10
161.82474682
 20
151.013833794
 30
0.0
 11
161.8722361362
 21
151.013833794
 31
0.0
  0
SPLINE
  5
108
330
1F
100
AcDbEntity
  8
0
  6
Continuous
 62
     7
370
    25
100
AcDbSpline
210
0.0
220
0.0
230
1.0
 70
     8
 71
     3
 72
    11
 73
     7
 74
     0
 42
0.00000001
 43
0.00000001
 40
0.0
 40
0.0
 40
0.0
 40
0.0
 40
0.2796245285185965
 40
0.559019158995128
 40
0.7793803439134468
 40
0.9999999999999999
 40
0.9999999999999999
 40
0.9999999999999999
 40
0.9999999999999999
 10
161.9861892946075
 20
150.8645816572049
 30
0.0
 10
161.9635035754739
 20
150.8669023438111
 30
0.0
 10
161.9181507886549
 20
150.8715418090316
 30
0.0
 10
161.8668697452397
 20
150.9120355789561
 30
0.0
 10
161.8351484151501
 20
150.9614140476823
 30
0.0
 10
161.8282153729208
 20
150.996353718827
 30
0.0
 10
161.8247468199814
 20
151.013833793957
 30
0.0
  0
SPLINE
  5
109
330
1F
100
AcDbEntity
  8
0
  6
Continuous
 62
     7
370
    25
100
AcDbSpline
210
0.0
220
0.0
230
1.0
 70
     8
 71
     3
 72
     9
 73
     5
 74
     0
 42
0.00000001
 43
0.00000001
 40
0.0
 40
0.0
 40
0.0
 40
0.0
 40
0.2080961464899782
 40
1.0
 40
1.0
 40
1.0
 40
1.0
 10
162.0647149577059
 20
150.8822884063773
 30
0.0
 10
162.0598412850309
 20
150.879366152439
 30
0.0
 10
162.0364209922615
 20
150.8653233458444
 30
0.0
 10
162.0083884069441
 20
150.8649094348871
 30
0.0
 10
161.9861892946075
 20
150.8645816572049
 30
0.0
  0
LINE
  5
10A
330
1F
100
AcDbEntity
  8
0
  6
Continuous
 62
     7
370
    25
100
AcDbLine
 10
159.0229839995
 20
160.4134231614
 30
0.0
 11
158.9992393413
 21
160.4134231614
 31
0.0
  0
LINE
  5
10B
330
1F
100
AcDbEntity
  8
0
  6
Continuous
 62
     7
370
    25
100
AcDbLine
 10
159.0229839995
 20
160.4947804163
 30
0.0
 11
159.0229839995
 21
160.4134231614
 31
0.0
  0
SPLINE
  5
10C
330
1F
100
AcDbEntity
  8
0
  6
Continuous
 62
     7
370
    25
100
AcDbSpline
210
0.0
220
0.0
230
1.0
 70
     8
 71
     3
 72
    11
 73
     7
 74
     0
 42
0.00000001
 43
0.00000001
 40
0.0
 40
0.0
 40
0.0
 40
0.0
 40
0.1865439701482351
 40
0.3733497993475539
 40
0.5601302631262398
 40
1.0
 40
1.0
 40
1.0
 40
1.0
 10
159.0855257329088
 20
160.5864199562694
 30
0.0
 10
159.0777328124979
 20
160.5854342066296
 30
0.0
 10
159.0621360324496
 20
160.5834613236148
 30
0.0
 10
159.0425131433503
 20
160.5693911515618
 30
0.0
 10
159.0234057186839
 20
160.5404881618963
 30
0.0
 10
159.0231579310696
 20
160.5136318726539
 30
0.0
 10
159.0229839994686
 20
160.4947804163388
 30
0.0
  0
SPLINE
  5
10D
330
1F
100
AcDbEntity
  8
0
  6
Continuous
 62
     7
370
    25
100
AcDbSpline
210
0.0
220
0.0
230
1.0
 70
     8
 71
     3
 72
    11
 73
     7
 74
     0
 42
0.00000001
 43
0.00000001
 40
0.0
 40
0.0
 40
0.0
 40
0.0
 40
0.5005372768658652
 40
0.6258968119147545
 40
0.7513678273463987
 40
1.0
 40
1.0
 40
1.0
 40
1.0
 10
159.1315310080156
 20
160.5117408864243
 30
0.0
 10
159.1322540479091
 20
160.5291126086488
 30
0.0
 10
159.1331581731064
 20
160.5508350778042
 30
0.0
 10
159.1199093208823
 20
160.5726566464437
 30
0.0
 10
159.1067042489293
 20
160.5836218617903
 30
0.0
 10
159.0939814281908
 20
160.5853027942235
 30
0.0
 10
159.0855257329088
 20
160.5864199562694
 30
0.0
  0
LINE
  5
10E
330
1F
100
AcDbEntity
  8
0
  6
Continuous
 62
     7
370
    25
100
AcDbLine
 10
159.131531008
 20
160.4134231614
 30
0.0
 11
159.131531008
 21
160.5117408864
 31
0.0
  0
LINE
  5
10F
330
1F
100
AcDbEntity
  8
0
  6
Continuous
 62
     7
370
    25
100
AcDbLine
 10
159.1552756661
 20
160.4134231614
 30
0.0
 11
159.131531008
 21
160.4134231614
 31
0.0
  0
LINE
  5
110
330
1F
100
AcDbEntity
  8
0
  6
Continuous
 62
     7
370
    25
100
AcDbLine
 10
159.1552756661
 20
160.4886322459
 30
0.0
 11
159.1552756661
 21
160.4134231614
 31
0.0
  0
SPLINE
  5
111
330
1F
100
AcDbEntity
  8
0
  6
Continuous
 62
     7
370
    25
100
AcDbSpline
210
0.0
220
0.0
230
1.0
 70
     8
 71
     3
 72
    13
 73
     9
 74
     0
 42
0.00000001
 43
0.00000001
 40
0.0
 40
0.0
 40
0.0
 40
0.0
 40
0.1249881961077917
 40
0.250004832257005
 40
0.3751001327870993
 40
0.5001998709969041
 40
0.7494316322645649
 40
1.0
 40
1.0
 40
1.0
 40
1.0
 10
159.2179764039825
 20
160.5864199562694
 30
0.0
 10
159.2124775827896
 20
160.5859938474961
 30
0.0
 10
159.201478689192
 20
160.5851415329919
 30
0.0
 10
159.1863644582667
 20
160.5778957018231
 30
0.0
 10
159.1735897695307
 20
160.5673450451765
 30
0.0
 10
159.1610116333952
 20
160.549012400084
 30
0.0
 10
159.15577991904
 20
160.5213999852855
 30
0.0
 10
159.1554440498398
 20
160.4995742817454
 30
0.0
 10
159.1552756661353
 20
160.4886322459328
 30
0.0
  0
SPLINE
  5
112
330
1F
100
AcDbEntity
  8
0
  6
Continuous
 62
     7
370
    25
100
AcDbSpline
210
0.0
220
0.0
230
1.0
 70
     8
 71
     3
 72
    11
 73
     7
 74
     0
 42
0.00000001
 43
0.00000001
 40
0.0
 40
0.0
 40
0.0
 40
0.0
 40
0.4994453881352975
 40
0.6249333480045375
 40
0.7505609926737755
 40
1.0
 40
1.0
 40
1.0
 40
1.0
 10
159.2638226746823
 20
160.5182600671134
 30
0.0
 10
159.2643688628459
 20
160.5347335858825
 30
0.0
 10
159.2650522833075
 20
160.5553461523058
 30
0.0
 10
159.2508284591037
 20
160.5746735851488
 30
0.0
 10
159.2379018450639
 20
160.5842023592271
 30
0.0
 10
159.2259349903775
 20
160.5855342073628
 30
0.0
 10
159.2179764039825
 20
160.5864199562694
 30
0.0
  0
LINE
  5
113
330
1F
100
AcDbEntity
  8
0
  6
Continuous
 62
     7
370
    25
100
AcDbLine
 10
159.2638226747
 20
160.4134231614
 30
0.0
 11
159.2638226747
 21
160.5182600671
 31
0.0
  0
LINE
  5
114
330
1F
100
AcDbEntity
  8
0
  6
Continuous
 62
     7
370
    25
100
AcDbLine
 10
159.2875673328
 20
160.4134231614
 30
0.0
 11
159.2638226747
 21
160.4134231614
 31
0.0
  0
LINE
  5
115
330
1F
100
AcDbEntity
  8
0
  6
Continuous
 62
     7
370
    25
100
AcDbLine
 10
159.2875673328
 20
160.5181540642
 30
0.0
 11
159.2875673328
 21
160.4134231614
 31
0.0
  0
SPLINE
  5
116
330
1F
100
AcDbEntity
  8
0
  6
Continuous
 62
     7
370
    25
100
AcDbSpline
210
0.0
220
0.0
230
1.0
 70
     8
 71
     3
 72
    11
 73
     7
 74
     0
 42
0.00000001
 43
0.00000001
 40
0.0
 40
0.0
 40
0.0
 40
0.0
 40
0.1868852632170307
 40
0.3735789994304867
 40
0.5602676092233555
 40
1.0
 40
1.0
 40
1.0
 40
1.0
 10
159.2221105185658
 20
160.610164614389
 30
0.0
 10
159.2301338155525
 20
160.6094328061086
 30
0.0
 10
159.2461721869512
 20
160.6079699395322
 30
0.0
 10
159.2670381908646
 20
160.5945475635764
 30
0.0
 10
159.2869501350728
 20
160.5649892582423
 30
0.0
 10
159.2873127710895
 20
160.5374711268295
 30
0.0
 10
159.287567332802
 20
160.5181540641753
 30
0.0
  0
SPLINE
  5
117
330
1F
100
AcDbEntity
  8
0
  6
Continuous
 62
     7
370
    25
100
AcDbSpline
210
0.0
220
0.0
230
1.0
 70
     8
 71
     3
 72
    10
 73
     6
 74
     0
 42
0.00000001
 43
0.00000001
 40
0.0
 40
0.0
 40
0.0
 40
0.0
 40
0.2812634147174764
 40
0.5620938163030627
 40
1.0
 40
1.0
 40
1.0
 40
1.0
 10
159.151194553021
 20
160.563470320185
 30
0.0
 10
159.1555855717255
 20
160.5705463657836
 30
0.0
 10
159.1643608490347
 20
160.5846875632047
 30
0.0
 10
159.1876009441725
 20
160.604559659584
 30
0.0
 10
159.2090451569616
 20
160.6080425725328
 30
0.0
 10
159.2221105185658
 20
160.610164614389
 30
0.0
  0
SPLINE
  5
118
330
1F
100
AcDbEntity
  8
0
  6
Continuous
 62
     7
370
    25
100
AcDbSpline
210
0.0
220
0.0
230
1.0
 70
     8
 71
     3
 72
    10
 73
     6
 74
     0
 42
0.00000001
 43
0.00000001
 40
0.0
 40
0.0
 40
0.0
 40
0.0
 40
0.2808091187319722
 40
0.561507402067132
 40
1.0
 40
1.0
 40
1.0
 40
1.0
 10
159.0896598474921
 20
160.610164614389
 30
0.0
 10
159.097384661734
 20
160.609370983471
 30
0.0
 10
159.1128312412325
 20
160.6077840348813
 30
0.0
 10
159.1380934647676
 20
160.5936182506878
 30
0.0
 10
159.1462322897364
 20
160.5748893691789
 30
0.0
 10
159.151194553021
 20
160.563470320185
 30
0.0
  0
SPLINE
  5
119
330
1F
100
AcDbEntity
  8
0
  6
Continuous
 62
     7
370
    25
100
AcDbSpline
210
0.0
220
0.0
230
1.0
 70
     8
 71
     3
 72
     9
 73
     5
 74
     0
 42
0.00000001
 43
0.00000001
 40
0.0
 40
0.0
 40
0.0
 40
0.0
 40
0.5597432622766958
 40
1.0
 40
1.0
 40
1.0
 40
1.0
 10
159.0498027427913
 20
160.6003593426209
 30
0.0
 10
159.0569366322853
 20
160.6035015213419
 30
0.0
 10
159.0696815637116
 20
160.6091151283876
 30
0.0
 10
159.083552898771
 20
160.6098438081945
 30
0.0
 10
159.0896598474921
 20
160.610164614389
 30
0.0
  0
SPLINE
  5
11A
330
1F
100
AcDbEntity
  8
0
  6
Continuous
 62
     7
370
    25
100
AcDbSpline
210
0.0
220
0.0
230
1.0
 70
     8
 71
     3
 72
     9
 73
     5
 74
     0
 42
0.00000001
 43
0.00000001
 40
0.0
 40
0.0
 40
0.0
 40
0.0
 40
0.560148165252258
 40
1.0
 40
1.0
 40
1.0
 40
1.0
 10
159.0229839994686
 20
160.5731695890151
 30
0.0
 10
159.0272700766987
 20
160.5789752290966
 30
0.0
 10
159.0349217615493
 20
160.5893397012875
 30
0.0
 10
159.0452568397031
 20
160.5969930174603
 30
0.0
 10
159.0498027427913
 20
160.6003593426209
 30
0.0
  0
LINE
  5
11B
330
1F
100
AcDbEntity
  8
0
  6
Continuous
 62
     7
370
    25
100
AcDbLine
 10
159.0229839995
 20
160.6067725204
 30
0.0
 11
159.0229839995
 21
160.573169589
 31
0.0
  0
LINE
  5
11C
330
1F
100
AcDbEntity
  8
0
  6
Continuous
 62
     7
370
    25
100
AcDbLine
 10
158.9992393413
 20
160.6067725204
 30
0.0
 11
159.0229839995
 21
160.6067725204
 31
0.0
  0
LINE
  5
11D
330
1F
100
AcDbEntity
  8
0
  6
Continuous
 62
     7
370
    25
100
AcDbLine
 10
158.9992393413
 20
160.4134231614
 30
0.0
 11
158.9992393413
 21
160.6067725204
 31
0.0
  0
LINE
  5
11E
330
1F
100
AcDbEntity
  8
0
  6
Continuous
 62
     7
370
    25
100
AcDbLine
 10
159.3621934012
 20
160.4134231614
 30
0.0
 11
159.3384487431
 21
160.4134231614
 31
0.0
  0
LINE
  5
11F
330
1F
100
AcDbEntity
  8
0
  6
Continuous
 62
     7
370
    25
100
AcDbLine
 10
159.3621934012
 20
160.6067725204
 30
0.0
 11
159.3621934012
 21
160.4134231614
 31
0.0
  0
LINE
  5
120
330
1F
100
AcDbEntity
  8
0
  6
Continuous
 62
     7
370
    25
100
AcDbLine
 10
159.3384487431
 20
160.6067725204
 30
0.0
 11
159.3621934012
 21
160.6067725204
 31
0.0
  0
LINE
  5
121
330
1F
100
AcDbEntity
  8
0
  6
Continuous
 62
     7
370
    25
100
AcDbLine
 10
159.3384487431
 20
160.4134231614
 30
0.0
 11
159.3384487431
 21
160.6067725204
 31
0.0
  0
LINE
  5
122
330
1F
100
AcDbEntity
  8
0
  6
Continuous
 62
     7
370
    25
100
AcDbLine
 10
149.3011357089
 20
149.8110386657
 30
0.0
 11
169.3011357089
 21
149.8110386657
 31
0.0
  0
LINE
  5
123
330
1F
100
AcDbEntity
  8
0
  6
Continuous
 62
     7
370
    25
100
AcDbLine
 10
149.3011357089
 20
161.3110386657
 30
0.0
 11
149.3011357089
 21
149.8110386657
 31
0.0
  0
LINE
  5
124
330
1F
100
AcDbEntity
  8
0
  6
Continuous
 62
     7
370
    25
100
AcDbLine
 10
149.3011357089
 20
161.3110386657
 30
0.0
 11
169.3011357089
 21
161.3110386657
 31
0.0
  0
LINE
  5
125
330
1F
100
AcDbEntity
  8
0
  6
Continuous
 62
     7
370
    25
100
AcDbLine
 10
169.3011357089
 20
161.3110386657
 30
0.0
 11
169.3011357089
 21
149.8110386657
 31
0.0
  0
SPLINE
  5
126
330
1F
100
AcDbEntity
  8
0
  6
Continuous
 62
     7
370
    25
100
AcDbSpline
210
0.0
220
0.0
230
1.0
 70
     8
 71
     3
 72
    11
 73
     7
 74
     0
 42
0.00000001
 43
0.00000001
 40
0.0
 40
0.0
 40
0.0
 40
0.0
 40
0.2793813788592195
 40
0.5587815295617746
 40
0.7792807726343906
 40
0.9999999999999999
 40
0.9999999999999999
 40
0.9999999999999999
 40
0.9999999999999999
 10
159.4130748114344
 20
160.5085077968143
 30
0.0
 10
159.4151522786678
 20
160.523979962034
 30
0.0
 10
159.419307352721
 20
160.5549253320598
 30
0.0
 10
159.4489164525879
 20
160.5887951702668
 30
0.0
 10
159.4847753085732
 20
160.6073394462646
 30
0.0
 10
159.5091235970835
 20
160.6092225787146
 30
0.0
 10
159.5213038111673
 20
160.610164614389
 30
0.0
  0
SPLINE
  5
127
330
1F
100
AcDbEntity
  8
0
  6
Continuous
 62
     7
370
    25
100
AcDbSpline
210
0.0
220
0.0
230
1.0
 70
     8
 71
     3
 72
    11
 73
     7
 74
     0
 42
0.00000001
 43
0.00000001
 40
0.0
 40
0.0
 40
0.0
 40
0.0
 40
0.2800770992636886
 40
0.5596468028283736
 40
0.7798186100876182
 40
1.0
 40
1.0
 40
1.0
 40
1.0
 10
159.5193427568137
 20
160.4100310673805
 30
0.0
 10
159.5041608263678
 20
160.4114164401548
 30
0.0
 10
159.4738244694964
 20
160.4141846759223
 30
0.0
 10
159.4386702692297
 20
160.4398177146217
 30
0.0
 10
159.4165292165496
 20
160.4727796200715
 30
0.0
 10
159.414226296511
 20
160.4965982317921
 30
0.0
 10
159.4130748114344
 20
160.5085077968143
 30
0.0
  0
SPLINE
  5
128
330
1F
100
AcDbEntity
  8
0
  6
Continuous
 62
     7
370
    25
100
AcDbSpline
210
0.0
220
0.0
230
1.0
 70
     8
 71
     3
 72
    10
 73
     6
 74
     0
 42
0.00000001
 43
0.00000001
 40
0.0
 40
0.0
 40
0.0
 40
0.0
 40
0.2801964799216043
 40
0.5605882028656205
 40
1.0
 40
1.0
 40
1.0
 40
1.0
 10
159.6098162644259
 20
160.4546583042929
 30
0.0
 10
159.6036796206686
 20
160.446953983797
 30
0.0
 10
159.5914020570943
 20
160.4315399743766
 30
0.0
 10
159.5601121923085
 20
160.413764252796
 30
0.0
 10
159.5347968063357
 20
160.4114461674815
 30
0.0
 10
159.5193427568137
 20
160.4100310673805
 30
0.0
  0
LINE
  5
129
330
1F
100
AcDbEntity
  8
0
  6
Continuous
 62
     7
370
    25
100
AcDbLine
 10
159.5899407135
 20
160.4676966657
 30
0.0
 11
159.6098162644
 21
160.4546583043
 31
0.0
  0
SPLINE
  5
12A
330
1F
100
AcDbEntity
  8
0
  6
Continuous
 62
     7
370
    25
100
AcDbSpline
210
0.0
220
0.0
230
1.0
 70
     8
 71
     3
 72
     9
 73
     5
 74
     0
 42
0.00000001
 43
0.00000001
 40
0.0
 40
0.0
 40
0.0
 40
0.0
 40
0.5587884877653512
 40
1.0
 40
1.0
 40
1.0
 40
1.0
 10
159.5197137670968
 20
160.4337757255001
 30
0.0
 10
159.535101500625
 20
160.4356422108137
 30
0.0
 10
159.5626391716133
 20
160.4389824466175
 30
0.0
 10
159.5815826380645
 20
160.4589061141776
 30
0.0
 10
159.5899407135445
 20
160.4676966656711
 30
0.0
  0
SPLINE
  5
12B
330
1F
100
AcDbEntity
  8
0
  6
Continuous
 62
     7
370
    25
100
AcDbSpline
210
0.0
220
0.0
230
1.0
 70
     8
 71
     3
 72
    11
 73
     7
 74
     0
 42
0.00000001
 43
0.00000001
 40
0.0
 40
0.0
 40
0.0
 40
0.0
 40
0.2793323578083611
 40
0.5587780938892567
 40
0.7792667839310097
 40
1.0
 40
1.0
 40
1.0
 40
1.0
 10
159.4368194695541
 20
160.5106278555749
 30
0.0
 10
159.4384805999688
 20
160.4988684023687
 30
0.0
 10
159.441803535035
 20
160.4753447229092
 30
0.0
 10
159.464491164391
 20
160.449681022042
 30
0.0
 10
159.4919200866937
 20
160.435855093364
 30
0.0
 10
159.5104457846366
 20
160.4344691041607
 30
0.0
 10
159.5197137670968
 20
160.4337757255001
 30
0.0
  0
SPLINE
  5
12C
330
1F
100
AcDbEntity
  8
0
  6
Continuous
 62
     7
370
    25
100
AcDbSpline
210
0.0
220
0.0
230
1.0
 70
     8
 71
     3
 72
    11
 73
     7
 74
     0
 42
0.00000001
 43
0.00000001
 40
0.0
 40
0.0
 40
0.0
 40
0.0
 40
0.2801363646280424
 40
0.5597686632649206
 40
0.779890230766153
 40
1.0
 40
1.0
 40
1.0
 40
1.0
 10
159.5195547626898
 20
160.5864199562694
 30
0.0
 10
159.5078002706723
 20
160.5853633007817
 30
0.0
 10
159.4843124371926
 20
160.5832518911093
 30
0.0
 10
159.4569828865491
 20
160.5636355952787
 30
0.0
 10
159.4395299829929
 20
160.5382964689696
 30
0.0
 10
159.4377229578909
 20
160.5198505619221
 30
0.0
 10
159.4368194695541
 20
160.5106278555749
 30
0.0
  0
SPLINE
  5
12D
330
1F
100
AcDbEntity
  8
0
  6
Continuous
 62
     7
370
    25
100
AcDbSpline
210
0.0
220
0.0
230
1.0
 70
     8
 71
     3
 72
     9
 73
     5
 74
     0
 42
0.00000001
 43
0.00000001
 40
0.0
 40
0.0
 40
0.0
 40
0.0
 40
0.5584514600935735
 40
1.0
 40
1.0
 40
1.0
 40
1.0
 10
159.5899407135445
 20
160.5524990160984
 30
0.0
 10
159.5789480823688
 20
160.5635345660771
 30
0.0
 10
159.5592639523035
 20
160.5832955493806
 30
0.0
 10
159.5317177486798
 20
160.5854629456231
 30
0.0
 10
159.5195547626898
 20
160.5864199562694
 30
0.0
  0
LINE
  5
12E
330
1F
100
AcDbEntity
  8
0
  6
Continuous
 62
     7
370
    25
100
AcDbLine
 10
159.6098162644
 20
160.5648483584
 30
0.0
 11
159.5899407135
 21
160.5524990161
 31
0.0
  0
SPLINE
  5
12F
330
1F
100
AcDbEntity
  8
0
  6
Continuous
 62
     7
370
    25
100
AcDbSpline
210
0.0
220
0.0
230
1.0
 70
     8
 71
     3
 72
     9
 73
     5
 74
     0
 42
0.00000001
 43
0.00000001
 40
0.0
 40
0.0
 40
0.0
 40
0.0
 40
0.5606545323335042
 40
1.0
 40
1.0
 40
1.0
 40
1.0
 10
159.5213038111673
 20
160.610164614389
 30
0.0
 10
159.5413151771457
 20
160.607962217596
 30
0.0
 10
159.5770080411544
 20
160.6040339575606
 30
0.0
 10
159.5998018901701
 20
160.5768093613386
 30
0.0
 10
159.6098162644259
 20
160.5648483583794
 30
0.0
  0
SPLINE
  5
130
330
1F
100
AcDbEntity
  8
0
  6
Continuous
 62
     7
370
    25
100
AcDbSpline
210
0.0
220
0.0
230
1.0
 70
     8
 71
     3
 72
    11
 73
     7
 74
     0
 42
0.00000001
 43
0.00000001
 40
0.0
 40
0.0
 40
0.0
 40
0.0
 40
0.279783765356088
 40
0.5596975977855757
 40
0.7799205692731833
 40
1.0
 40
1.0
 40
1.0
 40
1.0
 10
159.3502150691801
 20
160.6474776485771
 30
0.0
 10
159.3471127088451
 20
160.6478102084211
 30
0.0
 10
159.3409065459366
 20
160.6484754827109
 30
0.0
 10
159.3337687148922
 20
160.6537623093257
 30
0.0
 10
159.3290846704559
 20
160.6604102039482
 30
0.0
 10
159.3285431386427
 20
160.6652867377352
 30
0.0
 10
159.3282724610071
 20
160.6677242097416
 30
0.0
  0
SPLINE
  5
131
330
1F
100
AcDbEntity
  8
0
  6
Continuous
 62
     7
370
    25
100
AcDbSpline
210
0.0
220
0.0
230
1.0
 70
     8
 71
     3
 72
    11
 73
     7
 74
     0
 42
0.00000001
 43
0.00000001
 40
0.0
 40
0.0
 40
0.0
 40
0.0
 40
0.2791599464562398
 40
0.5588624321941656
 40
0.7793556911268656
 40
1.0
 40
1.0
 40
1.0
 40
1.0
 10
159.3723696832293
 20
160.6677242097416
 30
0.0
 10
159.3719133664561
 20
160.6646039980994
 30
0.0
 10
159.3709998460714
 20
160.658357510774
 30
0.0
 10
159.364668381989
 20
160.6519217875129
 30
0.0
 10
159.3575841854314
 20
160.648010936681
 30
0.0
 10
159.3526720019242
 20
160.6476554518522
 30
0.0
 10
159.3502150691801
 20
160.6474776485771
 30
0.0
  0
SPLINE
  5
132
330
1F
100
AcDbEntity
  8
0
  6
Continuous
 62
     7
370
    25
100
AcDbSpline
210
0.0
220
0.0
230
1.0
 70
     8
 71
     3
 72
    11
 73
     7
 74
     0
 42
0.00000001
 43
0.00000001
 40
0.0
 40
0.0
 40
0.0
 40
0.0
 40
0.2798694701781103
 40
0.5598663223930909
 40
0.7799105152954408
 40
1.0
 40
1.0
 40
1.0
 40
1.0
 10
159.3502150691801
 20
160.6881827767822
 30
0.0
 10
159.3533571843873
 20
160.6878621031944
 30
0.0
 10
159.3596428449292
 20
160.687220610065
 30
0.0
 10
159.3668835613476
 20
160.6818808962233
 30
0.0
 10
159.3715890352656
 20
160.6751274714902
 30
0.0
 10
159.3721094493904
 20
160.6701921329476
 30
0.0
 10
159.3723696832293
 20
160.6677242097416
 30
0.0
  0
SPLINE
  5
133
330
1F
100
AcDbEntity
  8
0
  6
Continuous
 62
     7
370
    25
100
AcDbSpline
210
0.0
220
0.0
230
1.0
 70
     8
 71
     3
 72
    11
 73
     7
 74
     0
 42
0.00000001
 43
0.00000001
 40
0.0
 40
0.0
 40
0.0
 40
0.0
 40
0.2792893121455619
 40
0.5588966705966473
 40
0.7794516788554617
 40
1.0
 40
1.0
 40
1.0
 40
1.0
 10
159.3282724610071
 20
160.6677242097416
 30
0.0
 10
159.3287057825139
 20
160.6708464669655
 30
0.0
 10
159.3295729189811
 20
160.6770945369463
 30
0.0
 10
159.3357779726843
 20
160.6836526953159
 30
0.0
 10
159.3428503306296
 20
160.6876051391865
 30
0.0
 10
159.347760181141
 20
160.6879902328629
 30
0.0
 10
159.3502150691801
 20
160.6881827767822
 30
0.0
  0
LINE
  5
134
330
1F
100
AcDbEntity
  8
0
  6
Continuous
 62
     7
370
    25
100
AcDbLine
 10
156.62318432
 20
151.0971521033
 30
0.0
 11
156.652826499
 21
151.1310386657
 31
0.0
  0
LINE
  5
135
330
1F
100
AcDbEntity
  8
0
  6
Continuous
 62
     7
370
    25
100
AcDbLine
 10
156.5924199259
 20
151.0643219182
 30
0.0
 11
156.62318432
 21
151.0971521033
 31
0.0
  0
LINE
  5
136
330
1F
100
AcDbEntity
  8
0
  6
Continuous
 62
     7
370
    25
100
AcDbLine
 10
156.7775245978
 20
150.8781500333
 30
0.0
 11
156.536309187
 21
150.8781500333
 31
0.0
  0
LINE
  5
137
330
1F
100
AcDbEntity
  8
0
  6
Continuous
 62
     7
370
    25
100
AcDbLine
 10
156.7775245978
 20
150.9324235375
 30
0.0
 11
156.7775245978
 21
150.8781500333
 31
0.0
  0
LINE
  5
138
330
1F
100
AcDbEntity
  8
0
  6
Continuous
 62
     7
370
    25
100
AcDbLine
 10
156.5526667934
 20
150.9324235375
 30
0.0
 11
156.7775245978
 21
150.9324235375
 31
0.0
  0
LINE
  5
139
330
1F
100
AcDbEntity
  8
0
  6
Continuous
 62
     7
370
    25
100
AcDbLine
 10
156.6636774423
 20
151.0737254539
 30
0.0
 11
156.562808328
 21
150.9660725081
 31
0.0
  0
LINE
  5
13A
330
1F
100
AcDbEntity
  8
0
  6
Continuous
 62
     7
370
    25
100
AcDbLine
 10
156.7130597164
 20
151.1310386657
 30
0.0
 11
156.6636774423
 21
151.0737254539
 31
0.0
  0
CIRCLE
  5
13B
330
1F
100
AcDbEntity
  8
0
  6
Continuous
 62
     7
370
    25
100
AcDbCircle
 10
159.3011357089
 20
158.5210386657
 30
0.0
 40
0.0870371767752829
  0
LINE
  5
13C
330
1F
100
AcDbEntity
  8
0
  6
Continuous
 62
     7
370
    25
100
AcDbLine
 10
158.7411357089
 20
157.6460386657
 30
0.0
 11
158.7411357089
 21
157.3960386657
 31
0.0
  0
ARC
  5
13D
330
1F
100
AcDbEntity
  8
0
  6
Continuous
 62
     7
370
    25
100
AcDbCircle
 10
158.7411357089
 20
157.6460386657
 30
0.0
 40
0.25
100
AcDbArc
 50
180.0
 51
270.0
  0
LINE
  5
13E
330
1F
100
AcDbEntity
  8
0
  6
Continuous
 62
     7
370
    25
100
AcDbLine
 10
158.7411357089
 20
157.6460386657
 30
0.0
 11
158.4911357089
 21
157.6460386657
 31
0.0
  0
LINE
  5
13F
330
1F
100
AcDbEntity
  8
0
  6
Continuous
 62
     7
370
    25
100
AcDbLine
 10
158.7411357089
 20
159.3960386657
 30
0.0
 11
158.4911357089
 21
159.3960386657
 31
0.0
  0
ARC
  5
140
330
1F
100
AcDbEntity
  8
0
  6
Continuous
 62
     7
370
    25
100
AcDbCircle
 10
158.7411357089
 20
159.3960386657
 30
0.0
 40
0.25
100
AcDbArc
 50
90.0
 51
180.0
  0
LINE
  5
141
330
1F
100
AcDbEntity
  8
0
  6
Continuous
 62
     7
370
    25
100
AcDbLine
 10
158.7411357089
 20
159.6460386657
 30
0.0
 11
158.7411357089
 21
159.3960386657
 31
0.0
  0
LINE
  5
142
330
1F
100
AcDbEntity
  8
0
  6
Continuous
 62
     7
370
    25
100
AcDbLine
 10
158.7411357089
 20
159.3960386657
 30
0.0
 11
158.7411357089
 21
157.6460386657
 31
0.0
  0
LINE
  5
143
330
1F
100
AcDbEntity
  8
0
  6
Continuous
 62
     7
370
    25
100
AcDbLine
 10
158.4911357089
 20
157.6460386657
 30
0.0
 11
158.4911357089
 21
159.3960386657
 31
0.0
  0
CIRCLE
  5
144
330
1F
100
AcDbEntity
  8
0
  6
Continuous
 62
     7
370
    25
100
AcDbCircle
 10
159.3011357089
 20
157.9260386657
 30
0.0
 40
0.25
  0
LINE
  5
145
330
1F
100
AcDbEntity
  8
0
  6
Continuous
 62
     7
370
    25
100
AcDbLine
 10
159.8611357089
 20
159.3960386657
 30
0.0
 11
158.7411357089
 21
159.3960386657
 31
0.0
  0
LINE
  5
146
330
1F
100
AcDbEntity
  8
0
  6
Continuous
 62
     7
370
    25
100
AcDbLine
 10
159.8611357089
 20
157.6460386657
 30
0.0
 11
159.8611357089
 21
159.3960386657
 31
0.0
  0
LINE
  5
147
330
1F
100
AcDbEntity
  8
0
  6
Continuous
 62
     7
370
    25
100
AcDbLine
 10
158.7411357089
 20
157.6460386657
 30
0.0
 11
159.8611357089
 21
157.6460386657
 31
0.0
  0
LINE
  5
148
330
1F
100
AcDbEntity
  8
0
  6
Continuous
 62
     7
370
    25
100
AcDbLine
 10
159.8611357089
 20
157.6460386657
 30
0.0
 11
159.8611357089
 21
157.3960386657
 31
0.0
  0
LINE
  5
149
330
1F
100
AcDbEntity
  8
0
  6
Continuous
 62
     7
370
    25
100
AcDbLine
 10
159.8611357089
 20
157.3960386657
 30
0.0
 11
158.7411357089
 21
157.3960386657
 31
0.0
  0
LINE
  5
14A
330
1F
100
AcDbEntity
  8
0
  6
Continuous
 62
     7
370
    25
100
AcDbLine
 10
158.7411357089
 20
159.6460386657
 30
0.0
 11
159.8611357089
 21
159.6460386657
 31
0.0
  0
LINE
  5
14B
330
1F
100
AcDbEntity
  8
0
  6
Continuous
 62
     7
370
    25
100
AcDbLine
 10
159.8611357089
 20
159.6460386657
 30
0.0
 11
159.8611357089
 21
159.3960386657
 31
0.0
  0
LINE
  5
14C
330
1F
100
AcDbEntity
  8
0
  6
Continuous
 62
     7
370
    25
100
AcDbLine
 10
160.1111357089
 20
159.3960386657
 30
0.0
 11
160.1111357089
 21
157.6460386657
 31
0.0
  0
LINE
  5
14D
330
1F
100
AcDbEntity
  8
0
  6
Continuous
 62
     7
370
    25
100
AcDbLine
 10
160.1111357089
 20
157.6460386657
 30
0.0
 11
159.8611357089
 21
157.6460386657
 31
0.0
  0
LINE
  5
14E
330
1F
100
AcDbEntity
  8
0
  6
Continuous
 62
     7
370
    25
100
AcDbLine
 10
160.1111357089
 20
159.3960386657
 30
0.0
 11
159.8611357089
 21
159.3960386657
 31
0.0
  0
ARC
  5
14F
330
1F
100
AcDbEntity
  8
0
  6
Continuous
 62
     7
370
    25
100
AcDbCircle
 10
159.8611357089
 20
159.3960386657
 30
0.0
 40
0.25
100
AcDbArc
 50
0.0
 51
90.0
  0
ARC
  5
150
330
1F
100
AcDbEntity
  8
0
  6
Continuous
 62
     7
370
    25
100
AcDbCircle
 10
159.8611357089
 20
157.6460386657
 30
0.0
 40
0.25
100
AcDbArc
 50
270.0
 51
0.0
  0
LINE
  5
151
330
1F
100
AcDbEntity
  8
0
  6
Continuous
 62
     7
370
    25
100
AcDbLine
 10
158.5586357089
 20
157.4751768794
 30
0.0
 11
158.3761357089
 21
157.3043150932
 31
0.0
  0
LINE
  5
152
330
1F
100
AcDbEntity
  8
0
  6
Continuous
 62
     7
370
    25
100
AcDbLine
 10
158.3761357089
 20
157.6460386657
 30
0.0
 11
158.3761357089
 21
157.3043150932
 31
0.0
  0
LINE
  5
153
330
1F
100
AcDbEntity
  8
0
  6
Continuous
 62
     7
370
    25
100
AcDbLine
 10
158.4911357089
 20
157.6460386657
 30
0.0
 11
158.3761357089
 21
157.6460386657
 31
0.0
  0
LINE
  5
154
330
1F
100
AcDbEntity
  8
0
  6
Continuous
 62
     7
370
    25
100
AcDbLine
 10
158.4911357089
 20
159.3960386657
 30
0.0
 11
158.3761357089
 21
159.3960386657
 31
0.0
  0
LINE
  5
155
330
1F
100
AcDbEntity
  8
0
  6
Continuous
 62
     7
370
    25
100
AcDbLine
 10
158.3761357089
 20
159.7377622382
 30
0.0
 11
158.3761357089
 21
159.3960386657
 31
0.0
  0
LINE
  5
156
330
1F
100
AcDbEntity
  8
0
  6
Continuous
 62
     7
370
    25
100
AcDbLine
 10
158.5586357089
 20
159.5669004519
 30
0.0
 11
158.3761357089
 21
159.7377622382
 31
0.0
  0
LINE
  5
157
330
1F
100
AcDbEntity
  8
0
  6
Continuous
 62
     7
370
    25
100
AcDbLine
 10
160.2261357089
 20
159.3960386657
 30
0.0
 11
160.2261357089
 21
159.7377622382
 31
0.0
  0
LINE
  5
158
330
1F
100
AcDbEntity
  8
0
  6
Continuous
 62
     7
370
    25
100
AcDbLine
 10
160.2261357089
 20
159.3960386657
 30
0.0
 11
160.1111357089
 21
159.3960386657
 31
0.0
  0
LINE
  5
159
330
1F
100
AcDbEntity
  8
0
  6
Continuous
 62
     7
370
    25
100
AcDbLine
 10
160.2261357089
 20
159.7377622382
 30
0.0
 11
160.0436357089
 21
159.5669004519
 31
0.0
  0
LINE
  5
15A
330
1F
100
AcDbEntity
  8
0
  6
Continuous
 62
     7
370
    25
100
AcDbLine
 10
160.2261357089
 20
157.3043150932
 30
0.0
 11
160.2261357089
 21
157.6460386657
 31
0.0
  0
LINE
  5
15B
330
1F
100
AcDbEntity
  8
0
  6
Continuous
 62
     7
370
    25
100
AcDbLine
 10
160.2261357089
 20
157.3043150932
 30
0.0
 11
160.0436357089
 21
157.4751768794
 31
0.0
  0
LINE
  5
15C
330
1F
100
AcDbEntity
  8
0
  6
Continuous
 62
     7
370
    25
100
AcDbLine
 10
160.2261357089
 20
157.6460386657
 30
0.0
 11
160.1111357089
 21
157.6460386657
 31
0.0
  0
ARC
  5
15D
330
1F
100
AcDbEntity
  8
0
  6
Continuous
 62
     7
370
    25
100
AcDbCircle
 10
158.7411357089
 20
157.6460386657
 30
0.0
 40
0.5
100
AcDbArc
 50
223.1136059459
 51
270.0
  0
LINE
  5
15E
330
1F
100
AcDbEntity
  8
0
  6
Continuous
 62
     7
370
    25
100
AcDbLine
 10
158.7411357089
 20
157.1460386657
 30
0.0
 11
158.7411357089
 21
157.3960386657
 31
0.0
  0
ARC
  5
15F
330
1F
100
AcDbEntity
  8
0
  6
Continuous
 62
     7
370
    25
100
AcDbCircle
 10
158.7411357089
 20
159.3960386657
 30
0.0
 40
0.5
100
AcDbArc
 50
90.0
 51
136.8863940541
  0
LINE
  5
160
330
1F
100
AcDbEntity
  8
0
  6
Continuous
 62
     7
370
    25
100
AcDbLine
 10
158.7411357089
 20
159.6460386657
 30
0.0
 11
158.7411357089
 21
159.8960386657
 31
0.0
  0
LINE
  5
161
330
1F
100
AcDbEntity
  8
0
  6
Continuous
 62
     7
370
    25
100
AcDbLine
 10
158.7411357089
 20
157.1460386657
 30
0.0
 11
159.8611357089
 21
157.1460386657
 31
0.0
  0
LINE
  5
162
330
1F
100
AcDbEntity
  8
0
  6
Continuous
 62
     7
370
    25
100
AcDbLine
 10
159.8611357089
 20
157.1460386657
 30
0.0
 11
159.8611357089
 21
157.3960386657
 31
0.0
  0
LINE
  5
163
330
1F
100
AcDbEntity
  8
0
  6
Continuous
 62
     7
370
    25
100
AcDbLine
 10
159.8611357089
 20
159.8960386657
 30
0.0
 11
158.7411357089
 21
159.8960386657
 31
0.0
  0
LINE
  5
164
330
1F
100
AcDbEntity
  8
0
  6
Continuous
 62
     7
370
    25
100
AcDbLine
 10
159.8611357089
 20
159.6460386657
 30
0.0
 11
159.8611357089
 21
159.8960386657
 31
0.0
  0
ARC
  5
165
330
1F
100
AcDbEntity
  8
0
  6
Continuous
 62
     7
370
    25
100
AcDbCircle
 10
159.8611357089
 20
157.6460386657
 30
0.0
 40
0.5
100
AcDbArc
 50
270.0
 51
316.8863940541
  0
ARC
  5
166
330
1F
100
AcDbEntity
  8
0
  6
Continuous
 62
     7
370
    25
100
AcDbCircle
 10
159.8611357089
 20
159.3960386657
 30
0.0
 40
0.5
100
AcDbArc
 50
43.1136059459
 51
90.0
  0
LINE
  5
167
330
1F
100
AcDbEntity
  8
0
  6
Continuous
 62
     7
370
    25
100
AcDbLine
 10
158.3761357089
 20
159.3960386657
 30
0.0
 11
158.3761357089
 21
157.6460386657
 31
0.0
  0
LINE
  5
168
330
1F
100
AcDbEntity
  8
0
  6
Continuous
 62
     7
370
    25
100
AcDbLine
 10
160.2261357089
 20
157.6460386657
 30
0.0
 11
160.2261357089
 21
159.3960386657
 31
0.0
  0
LINE
  5
169
330
1F
100
AcDbEntity
  8
0
  6
Continuous
 62
     7
370
    25
100
AcDbLine
 10
158.3761357089
 20
157.3043150932
 30
0.0
 11
158.3761357089
 21
157.1460386657
 31
0.0
  0
LINE
  5
16A
330
1F
100
AcDbEntity
  8
0
  6
Continuous
 62
     7
370
    25
100
AcDbLine
 10
158.3761357089
 20
157.1460386657
 30
0.0
 11
158.7411357089
 21
157.1460386657
 31
0.0
  0
LINE
  5
16B
330
1F
100
AcDbEntity
  8
0
  6
Continuous
 62
     7
370
    25
100
AcDbLine
 10
158.7411357089
 20
159.8960386657
 30
0.0
 11
158.3761357089
 21
159.8960386657
 31
0.0
  0
LINE
  5
16C
330
1F
100
AcDbEntity
  8
0
  6
Continuous
 62
     7
370
    25
100
AcDbLine
 10
158.3761357089
 20
159.8960386657
 30
0.0
 11
158.3761357089
 21
159.7377622382
 31
0.0
  0
LINE
  5
16D
330
1F
100
AcDbEntity
  8
0
  6
Continuous
 62
     7
370
    25
100
AcDbLine
 10
160.2261357089
 20
157.1460386657
 30
0.0
 11
160.2261357089
 21
157.3043150932
 31
0.0
  0
LINE
  5
16E
330
1F
100
AcDbEntity
  8
0
  6
Continuous
 62
     7
370
    25
100
AcDbLine
 10
159.8611357089
 20
157.1460386657
 30
0.0
 11
160.2261357089
 21
157.1460386657
 31
0.0
  0
LINE
  5
16F
330
1F
100
AcDbEntity
  8
0
  6
Continuous
 62
     7
370
    25
100
AcDbLine
 10
160.2261357089
 20
159.7377622382
 30
0.0
 11
160.2261357089
 21
159.8960386657
 31
0.0
  0
LINE
  5
170
330
1F
100
AcDbEntity
  8
0
  6
Continuous
 62
     7
370
    25
100
AcDbLine
 10
160.2261357089
 20
159.8960386657
 30
0.0
 11
159.8611357089
 21
159.8960386657
 31
0.0
  0
LINE
  5
171
330
1F
100
AcDbEntity
  8
0
  6
Continuous
 62
     7
370
    25
100
AcDbLine
 10
195.7050825348
 20
151.1310386657
 30
0.0
 11
195.7550825348
 21
151.1310386657
 31
0.0
  0
LINE
  5
172
330
1F
100
AcDbEntity
  8
0
  6
Continuous
 62
     7
370
    25
100
AcDbLine
 10
195.7550825348
 20
153.1310386657
 30
0.0
 11
195.7050825348
 21
153.1310386657
 31
0.0
  0
LINE
  5
173
330
1F
100
AcDbEntity
  8
0
  6
Continuous
 62
     7
370
    25
100
AcDbLine
 10
196.6540825348
 20
156.5390014889
 30
0.0
 11
196.7540825348
 21
156.5390014889
 31
0.0
  0
LINE
  5
174
330
1F
100
AcDbEntity
  8
0
  6
Continuous
 62
     7
370
    25
100
AcDbLine
 10
196.7540825348
 20
156.7130758424
 30
0.0
 11
196.6540825348
 21
156.7130758424
 31
0.0
  0
LINE
  5
175
330
1F
100
AcDbEntity
  8
0
  6
Continuous
 62
     7
370
    25
100
AcDbLine
 10
193.1560825348
 20
158.6080758424
 30
0.0
 11
193.0560825348
 21
158.6080758424
 31
0.0
  0
LINE
  5
176
330
1F
100
AcDbEntity
  8
0
  6
Continuous
 62
     7
370
    25
100
AcDbLine
 10
193.0560825348
 20
158.4340014889
 30
0.0
 11
193.1560825348
 21
158.4340014889
 31
0.0
  0
LINE
  5
177
330
1F
100
AcDbEntity
  8
0
  6
Continuous
 62
     7
370
    25
100
AcDbLine
 10
190.6050825348
 20
153.1356576281
 30
0.0
 11
190.6050825348
 21
154.1310386657
 31
0.0
  0
LINE
  5
178
330
1F
100
AcDbEntity
  8
0
  6
Continuous
 62
     7
370
    25
100
AcDbLine
 10
190.6050825348
 20
154.1310386657
 30
0.0
 11
193.6050825348
 21
154.1310386657
 31
0.0
  0
LINE
  5
179
330
1F
100
AcDbEntity
  8
0
  6
Continuous
 62
     7
370
    25
100
AcDbLine
 10
193.6050825348
 20
154.1310386657
 30
0.0
 11
193.6050825348
 21
153.1356576281
 31
0.0
  0
LINE
  5
17A
330
1F
100
AcDbEntity
  8
0
  6
Continuous
 62
     7
370
    25
100
AcDbLine
 10
193.6050825348
 20
153.1356576281
 30
0.0
 11
190.6050825348
 21
153.1356576281
 31
0.0
  0
LINE
  5
17B
330
1F
100
AcDbEntity
  8
0
  6
Continuous
 62
     7
370
    25
100
AcDbLine
 10
193.6050825348
 20
151.1264197032
 30
0.0
 11
193.6050825348
 21
150.1310386657
 31
0.0
  0
LINE
  5
17C
330
1F
100
AcDbEntity
  8
0
  6
Continuous
 62
     7
370
    25
100
AcDbLine
 10
190.6050825348
 20
150.1310386657
 30
0.0
 11
193.6050825348
 21
150.1310386657
 31
0.0
  0
LINE
  5
17D
330
1F
100
AcDbEntity
  8
0
  6
Continuous
 62
     7
370
    25
100
AcDbLine
 10
190.6050825348
 20
151.1264197032
 30
0.0
 11
193.6050825348
 21
151.1264197032
 31
0.0
  0
LINE
  5
17E
330
1F
100
AcDbEntity
  8
0
  6
Continuous
 62
     7
370
    25
100
AcDbLine
 10
190.6050825348
 20
150.1310386657
 30
0.0
 11
190.6050825348
 21
151.1264197032
 31
0.0
  0
LINE
  5
17F
330
1F
100
AcDbEntity
  8
0
  6
Continuous
 62
     7
370
    25
100
AcDbLine
 10
193.6050825348
 20
153.1356576281
 30
0.0
 11
193.6050825348
 21
151.1264197032
 31
0.0
  0
LINE
  5
180
330
1F
100
AcDbEntity
  8
0
  6
Continuous
 62
     7
370
    25
100
AcDbLine
 10
190.6050825348
 20
153.1356576281
 30
0.0
 11
190.6050825348
 21
151.1264197032
 31
0.0
  0
LINE
  5
181
330
1F
100
AcDbEntity
  8
0
  6
Continuous
 62
     7
370
    25
100
AcDbLine
 10
190.1050825348
 20
150.1310386657
 30
0.0
 11
190.1050825348
 21
151.1310386657
 31
0.0
  0
LINE
  5
182
330
1F
100
AcDbEntity
  8
0
  6
Continuous
 62
     7
370
    25
100
AcDbLine
 10
190.1050825348
 20
151.1310386657
 30
0.0
 11
190.6050825348
 21
151.1310386657
 31
0.0
  0
LINE
  5
183
330
1F
100
AcDbEntity
  8
0
  6
Continuous
 62
     7
370
    25
100
AcDbLine
 10
190.1050825348
 20
150.1310386657
 30
0.0
 11
190.6050825348
 21
150.1310386657
 31
0.0
  0
LINE
  5
184
330
1F
100
AcDbEntity
  8
0
  6
Continuous
 62
     7
370
    25
100
AcDbLine
 10
190.1050825348
 20
153.1310386657
 30
0.0
 11
190.6050825348
 21
153.1310386657
 31
0.0
  0
LINE
  5
185
330
1F
100
AcDbEntity
  8
0
  6
Continuous
 62
     7
370
    25
100
AcDbLine
 10
190.1050825348
 20
154.1310386657
 30
0.0
 11
190.1050825348
 21
153.1310386657
 31
0.0
  0
LINE
  5
186
330
1F
100
AcDbEntity
  8
0
  6
Continuous
 62
     7
370
    25
100
AcDbLine
 10
190.1050825348
 20
154.1310386657
 30
0.0
 11
190.6050825348
 21
154.1310386657
 31
0.0
  0
LINE
  5
187
330
1F
100
AcDbEntity
  8
0
  6
Continuous
 62
     7
370
    25
100
AcDbLine
 10
194.1050825348
 20
153.1310386657
 30
0.0
 11
193.6050825348
 21
153.1310386657
 31
0.0
  0
LINE
  5
188
330
1F
100
AcDbEntity
  8
0
  6
Continuous
 62
     7
370
    25
100
AcDbLine
 10
194.1050825348
 20
154.1310386657
 30
0.0
 11
193.6050825348
 21
154.1310386657
 31
0.0
  0
LINE
  5
189
330
1F
100
AcDbEntity
  8
0
  6
Continuous
 62
     7
370
    25
100
AcDbLine
 10
194.1050825348
 20
151.1310386657
 30
0.0
 11
193.6050825348
 21
151.1310386657
 31
0.0
  0
LINE
  5
18A
330
1F
100
AcDbEntity
  8
0
  6
Continuous
 62
     7
370
    25
100
AcDbLine
 10
194.1050825348
 20
150.1310386657
 30
0.0
 11
193.6050825348
 21
150.1310386657
 31
0.0
  0
LINE
  5
18B
330
1F
100
AcDbEntity
  8
0
  6
Continuous
 62
     7
370
    25
100
AcDbLine
 10
199.6050825348
 20
151.8110386657
 30
0.0
 11
199.6050825348
 21
152.4510386657
 31
0.0
  0
LINE
  5
18C
330
1F
100
AcDbEntity
  8
0
  6
Continuous
 62
     7
370
    25
100
AcDbLine
 10
199.6050825348
 20
152.4510386657
 30
0.0
 11
195.7550825348
 21
152.4510386657
 31
0.0
  0
LINE
  5
18D
330
1F
100
AcDbEntity
  8
0
  6
Continuous
 62
     7
370
    25
100
AcDbLine
 10
194.1050825348
 20
152.4510386657
 30
0.0
 11
193.6050825348
 21
152.4510386657
 31
0.0
  0
LINE
  5
18E
330
1F
100
AcDbEntity
  8
0
  6
Continuous
 62
     7
370
    25
100
AcDbLine
 10
199.6050825348
 20
151.8110386657
 30
0.0
 11
195.7550825348
 21
151.8110386657
 31
0.0
  0
LINE
  5
18F
330
1F
100
AcDbEntity
  8
0
  6
Continuous
 62
     7
370
    25
100
AcDbLine
 10
194.1050825348
 20
151.8110386657
 30
0.0
 11
193.6050825348
 21
151.8110386657
 31
0.0
  0
LINE
  5
190
330
1F
100
AcDbEntity
  8
0
  6
Continuous
 62
     7
370
    25
100
AcDbLine
 10
200.1050825348
 20
152.2810386657
 30
0.0
 11
200.1050825348
 21
151.9810386657
 31
0.0
  0
LINE
  5
191
330
1F
100
AcDbEntity
  8
0
  6
Continuous
 62
     7
370
    25
100
AcDbLine
 10
200.1050825348
 20
151.9810386657
 30
0.0
 11
199.6050825348
 21
151.8110386657
 31
0.0
  0
LINE
  5
192
330
1F
100
AcDbEntity
  8
0
  6
Continuous
 62
     7
370
    25
100
AcDbLine
 10
199.6050825348
 20
152.4510386657
 30
0.0
 11
200.1050825348
 21
152.2810386657
 31
0.0
  0
LINE
  5
193
330
1F
100
AcDbEntity
  8
0
  6
Continuous
 62
     7
370
    25
100
AcDbLine
 10
189.4450825348
 20
151.8810386657
 30
0.0
 11
190.6050825348
 21
151.8810386657
 31
0.0
  0
LINE
  5
194
330
1F
100
AcDbEntity
  8
0
  6
Continuous
 62
     7
370
    25
100
AcDbLine
 10
189.4450825348
 20
157.1310386657
 30
0.0
 11
189.9450825348
 21
157.1310386657
 31
0.0
  0
LINE
  5
195
330
1F
100
AcDbEntity
  8
0
  6
Continuous
 62
     7
370
    25
100
AcDbLine
 10
189.9450825348
 20
157.1310386657
 30
0.0
 11
189.9450825348
 21
152.3810386657
 31
0.0
  0
LINE
  5
196
330
1F
100
AcDbEntity
  8
0
  6
Continuous
 62
     7
370
    25
100
AcDbLine
 10
189.9450825348
 20
152.3810386657
 30
0.0
 11
190.6050825348
 21
152.3810386657
 31
0.0
  0
LINE
  5
197
330
1F
100
AcDbEntity
  8
0
  6
Continuous
 62
     7
370
    25
100
AcDbLine
 10
189.4450825348
 20
151.8810386657
 30
0.0
 11
189.4450825348
 21
157.1310386657
 31
0.0
  0
LINE
  5
198
330
1F
100
AcDbEntity
  8
0
  6
Continuous
 62
     7
370
    25
100
AcDbLine
 10
189.9450825348
 20
157.1310386657
 30
0.0
 11
189.8700825348
 21
157.6310386657
 31
0.0
  0
LINE
  5
199
330
1F
100
AcDbEntity
  8
0
  6
Continuous
 62
     7
370
    25
100
AcDbLine
 10
189.5200825348
 20
157.6310386657
 30
0.0
 11
189.8700825348
 21
157.6310386657
 31
0.0
  0
LINE
  5
19A
330
1F
100
AcDbEntity
  8
0
  6
Continuous
 62
     7
370
    25
100
AcDbLine
 10
189.5200825348
 20
157.6310386657
 30
0.0
 11
189.4450825348
 21
157.1310386657
 31
0.0
  0
LINE
  5
19B
330
1F
100
AcDbEntity
  8
0
  6
Continuous
 62
     7
370
    25
100
AcDbLine
 10
194.1050825348
 20
149.8110386657
 30
0.0
 11
195.7050825348
 21
149.8110386657
 31
0.0
  0
LINE
  5
19C
330
1F
100
AcDbEntity
  8
0
  6
Continuous
 62
     7
370
    25
100
AcDbLine
 10
194.1050825348
 20
161.3110386657
 30
0.0
 11
194.1050825348
 21
149.8110386657
 31
0.0
  0
LINE
  5
19D
330
1F
100
AcDbEntity
  8
0
  6
Continuous
 62
     7
370
    25
100
AcDbLine
 10
195.7050825348
 20
161.3110386657
 30
0.0
 11
194.1050825348
 21
161.3110386657
 31
0.0
  0
LINE
  5
19E
330
1F
100
AcDbEntity
  8
0
  6
Continuous
 62
     7
370
    25
100
AcDbLine
 10
195.7050825348
 20
161.3110386657
 30
0.0
 11
195.7050825348
 21
149.8110386657
 31
0.0
  0
LINE
  5
19F
330
1F
100
AcDbEntity
  8
0
  6
Continuous
 62
     7
370
    25
100
AcDbLine
 10
195.7550825348
 20
153.1310386657
 30
0.0
 11
195.7550825348
 21
151.1310386657
 31
0.0
  0
LINE
  5
1A0
330
1F
100
AcDbEntity
  8
0
  6
Continuous
 62
     7
370
    25
100
AcDbLine
 10
195.9540825348
 20
157.8427622382
 30
0.0
 11
195.9540825348
 21
157.5010386657
 31
0.0
  0
LINE
  5
1A1
330
1F
100
AcDbEntity
  8
0
  6
Continuous
 62
     7
370
    25
100
AcDbLine
 10
195.9540825348
 20
157.5010386657
 30
0.0
 11
195.9540825348
 21
155.7510386657
 31
0.0
  0
LINE
  5
1A2
330
1F
100
AcDbEntity
  8
0
  6
Continuous
 62
     7
370
    25
100
AcDbLine
 10
195.9540825348
 20
155.7510386657
 30
0.0
 11
195.9540825348
 21
155.4093150932
 31
0.0
  0
LINE
  5
1A3
330
1F
100
AcDbEntity
  8
0
  6
Continuous
 62
     7
370
    25
100
AcDbLine
 10
195.9540825348
 20
155.4093150932
 30
0.0
 11
195.9540825348
 21
155.2510386657
 31
0.0
  0
LINE
  5
1A4
330
1F
100
AcDbEntity
  8
0
  6
Continuous
 62
     7
370
    25
100
AcDbLine
 10
195.9540825348
 20
155.2510386657
 30
0.0
 11
195.7050825348
 21
155.2510386657
 31
0.0
  0
LINE
  5
1A5
330
1F
100
AcDbEntity
  8
0
  6
Continuous
 62
     7
370
    25
100
AcDbLine
 10
195.9540825348
 20
158.0010386657
 30
0.0
 11
195.7050825348
 21
158.0010386657
 31
0.0
  0
LINE
  5
1A6
330
1F
100
AcDbEntity
  8
0
  6
Continuous
 62
     7
370
    25
100
AcDbLine
 10
195.9540825348
 20
158.0010386657
 30
0.0
 11
195.9540825348
 21
157.8427622382
 31
0.0
  0
SPLINE
  5
1A7
330
1F
100
AcDbEntity
  8
0
  6
Continuous
 62
     7
370
    25
100
AcDbSpline
210
0.0
220
0.0
230
1.0
 70
     8
 71
     3
 72
    10
 73
     6
 74
     0
 42
0.00000001
 43
0.00000001
 40
0.0
 40
0.0
 40
0.0
 40
0.0
 40
0.2702722199484985
 40
0.6653114608717555
 40
1.0
 40
1.0
 40
1.0
 40
1.0
 10
196.2040825347799
 20
157.6719004519042
 30
0.0
 10
196.2021578422013
 20
157.6585209254919
 30
0.0
 10
196.197419952264
 20
157.6255854197088
 30
0.0
 10
196.1714609940203
 20
157.5691723061711
 30
0.0
 10
196.1666879419808
 20
157.5224621897024
 30
0.0
 10
196.1644987889049
 20
157.5010386656558
 30
0.0
  0
LINE
  5
1A8
330
1F
100
AcDbEntity
  8
0
  6
Continuous
 62
     7
370
    25
100
AcDbLine
 10
196.1644987889
 20
157.5010386657
 30
0.0
 11
195.9540825348
 21
157.5010386657
 31
0.0
  0
ARC
  5
1A9
330
1F
100
AcDbEntity
  8
0
  6
Continuous
 62
     7
370
    25
100
AcDbCircle
 10
196.1707762848
 20
157.8914949752
 30
0.0
 40
0.2221059678369542
100
AcDbArc
 50
192.6745052135
 51
278.6244099673
  0
LINE
  5
1AA
330
1F
100
AcDbEntity
  8
0
  6
Continuous
 62
     7
370
    25
100
AcDbLine
 10
196.1644987889
 20
157.5010386657
 30
0.0
 11
196.1644987889
 21
155.7510386657
 31
0.0
  0
LINE
  5
1AB
330
1F
100
AcDbEntity
  8
0
  6
Continuous
 62
     7
370
    25
100
AcDbLine
 10
196.1644987889
 20
155.7510386657
 30
0.0
 11
195.9540825348
 21
155.7510386657
 31
0.0
  0
LINE
  5
1AC
330
1F
100
AcDbEntity
  8
0
  6
Continuous
 62
     7
370
    25
100
AcDbLine
 10
196.2040825348
 20
157.7510386657
 30
0.0
 11
196.2040825348
 21
157.6719004519
 31
0.0
  0
ARC
  5
1AD
330
1F
100
AcDbEntity
  8
0
  6
Continuous
 62
     7
370
    25
100
AcDbCircle
 10
196.2040825348
 20
158.0010386657
 30
0.0
 40
0.25
100
AcDbArc
 50
180.0
 51
270.0
  0
SPLINE
  5
1AE
330
1F
100
AcDbEntity
  8
0
  6
Continuous
 62
     7
370
    25
100
AcDbSpline
210
0.0
220
0.0
230
1.0
 70
     8
 71
     3
 72
    10
 73
     6
 74
     0
 42
0.00000001
 43
0.00000001
 40
0.0
 40
0.0
 40
0.0
 40
0.0
 40
0.3346885391282445
 40
0.7297277800515015
 40
1.0
 40
1.0
 40
1.0
 40
1.0
 10
196.1644987889049
 20
155.7510386656558
 30
0.0
 10
196.1666879419808
 20
155.7296151416091
 30
0.0
 10
196.1714609940203
 20
155.6829050251404
 30
0.0
 10
196.197419952264
 20
155.6264919116027
 30
0.0
 10
196.2021578422013
 20
155.5935564058196
 30
0.0
 10
196.2040825347799
 20
155.5801768794073
 30
0.0
  0
ARC
  5
1AF
330
1F
100
AcDbEntity
  8
0
  6
Continuous
 62
     7
370
    25
100
AcDbCircle
 10
196.1707762848
 20
155.3605823561
 30
0.0
 40
0.2221059678369304
100
AcDbArc
 50
81.3755900327
 51
167.3254947865
  0
LINE
  5
1B0
330
1F
100
AcDbEntity
  8
0
  6
Continuous
 62
     7
370
    25
100
AcDbLine
 10
196.2040825348
 20
155.5801768794
 30
0.0
 11
196.2040825348
 21
155.5010386657
 31
0.0
  0
ARC
  5
1B1
330
1F
100
AcDbEntity
  8
0
  6
Continuous
 62
     7
370
    25
100
AcDbCircle
 10
196.2040825348
 20
155.2510386657
 30
0.0
 40
0.25
100
AcDbArc
 50
90.0
 51
180.0
  0
LINE
  5
1B2
330
1F
100
AcDbEntity
  8
0
  6
Continuous
 62
     7
370
    25
100
AcDbLine
 10
196.4040825348
 20
157.5010386657
 30
0.0
 11
196.4040825348
 21
157.7510386657
 31
0.0
  0
LINE
  5
1B3
330
1F
100
AcDbEntity
  8
0
  6
Continuous
 62
     7
370
    25
100
AcDbLine
 10
196.4040825348
 20
157.5010386657
 30
0.0
 11
196.1644987889
 21
157.5010386657
 31
0.0
  0
LINE
  5
1B4
330
1F
100
AcDbEntity
  8
0
  6
Continuous
 62
     7
370
    25
100
AcDbLine
 10
196.2040825348
 20
157.7510386657
 30
0.0
 11
196.4040825348
 21
157.7510386657
 31
0.0
  0
LINE
  5
1B5
330
1F
100
AcDbEntity
  8
0
  6
Continuous
 62
     7
370
    25
100
AcDbLine
 10
196.4040825348
 20
155.5010386657
 30
0.0
 11
196.4040825348
 21
155.7510386657
 31
0.0
  0
LINE
  5
1B6
330
1F
100
AcDbEntity
  8
0
  6
Continuous
 62
     7
370
    25
100
AcDbLine
 10
196.4040825348
 20
155.5010386657
 30
0.0
 11
196.2040825348
 21
155.5010386657
 31
0.0
  0
LINE
  5
1B7
330
1F
100
AcDbEntity
  8
0
  6
Continuous
 62
     7
370
    25
100
AcDbLine
 10
196.1644987889
 20
155.7510386657
 30
0.0
 11
196.4040825348
 21
155.7510386657
 31
0.0
  0
LINE
  5
1B8
330
1F
100
AcDbEntity
  8
0
  6
Continuous
 62
     7
370
    25
100
AcDbLine
 10
196.4040825348
 20
155.7510386657
 30
0.0
 11
196.4040825348
 21
157.5010386657
 31
0.0
  0
LINE
  5
1B9
330
1F
100
AcDbEntity
  8
0
  6
Continuous
 62
     7
370
    25
100
AcDbLine
 10
196.6540825348
 20
157.5010386657
 30
0.0
 11
196.4040825348
 21
157.5010386657
 31
0.0
  0
ARC
  5
1BA
330
1F
100
AcDbEntity
  8
0
  6
Continuous
 62
     7
370
    25
100
AcDbCircle
 10
196.4040825348
 20
157.5010386657
 30
0.0
 40
0.25
100
AcDbArc
 50
0.0
 51
90.0
  0
LINE
  5
1BB
330
1F
100
AcDbEntity
  8
0
  6
Continuous
 62
     7
370
    25
100
AcDbLine
 10
196.6540825348
 20
157.5010386657
 30
0.0
 11
196.6540825348
 21
155.7510386657
 31
0.0
  0
LINE
  5
1BC
330
1F
100
AcDbEntity
  8
0
  6
Continuous
 62
     7
370
    25
100
AcDbLine
 10
196.6540825348
 20
155.7510386657
 30
0.0
 11
196.4040825348
 21
155.7510386657
 31
0.0
  0
ARC
  5
1BD
330
1F
100
AcDbEntity
  8
0
  6
Continuous
 62
     7
370
    25
100
AcDbCircle
 10
196.4040825348
 20
155.7510386657
 30
0.0
 40
0.25
100
AcDbArc
 50
270.0
 51
0.0
  0
LINE
  5
1BE
330
1F
100
AcDbEntity
  8
0
  6
Continuous
 62
     7
370
    25
100
AcDbLine
 10
196.7540825348
 20
156.7130758424
 30
0.0
 11
196.7540825348
 21
156.5390014889
 31
0.0
  0
ARC
  5
1BF
330
1F
100
AcDbEntity
  8
0
  6
Continuous
 62
     7
370
    25
100
AcDbCircle
 10
193.6060825348
 20
157.1460386657
 30
0.0
 40
0.2500000000000284
100
AcDbArc
 50
0.0
 51
90.0
  0
LINE
  5
1C0
330
1F
100
AcDbEntity
  8
0
  6
Continuous
 62
     7
370
    25
100
AcDbLine
 10
193.6060825348
 20
157.3960386657
 30
0.0
 11
193.6060825348
 21
157.4751768794
 31
0.0
  0
ARC
  5
1C1
330
1F
100
AcDbEntity
  8
0
  6
Continuous
 62
     7
370
    25
100
AcDbCircle
 10
193.6393887848
 20
157.2555823561
 30
0.0
 40
0.2221059678368812
100
AcDbArc
 50
12.6745052135
 51
98.6244099673
  0
LINE
  5
1C2
330
1F
100
AcDbEntity
  8
0
  6
Continuous
 62
     7
370
    25
100
AcDbLine
 10
193.8560825348
 20
157.3043150932
 30
0.0
 11
193.8560825348
 21
157.6460386657
 31
0.0
  0
SPLINE
  5
1C3
330
1F
100
AcDbEntity
  8
0
  6
Continuous
 62
     7
370
    25
100
AcDbSpline
210
0.0
220
0.0
230
1.0
 70
     8
 71
     3
 72
    10
 73
     6
 74
     0
 42
0.00000001
 43
0.00000001
 40
0.0
 40
0.0
 40
0.0
 40
0.0
 40
0.2702722199484985
 40
0.6653114608717554
 40
1.0
 40
1.0
 40
1.0
 40
1.0
 10
193.6060825347799
 20
157.4751768794073
 30
0.0
 10
193.6080072273586
 20
157.4885564058196
 30
0.0
 10
193.6127451172959
 20
157.5214919116027
 30
0.0
 10
193.6387040755396
 20
157.5779050251404
 30
0.0
 10
193.643477127579
 20
157.6246151416091
 30
0.0
 10
193.6456662806549
 20
157.6460386656557
 30
0.0
  0
LINE
  5
1C4
330
1F
100
AcDbEntity
  8
0
  6
Continuous
 62
     7
370
    25
100
AcDbLine
 10
193.8560825348
 20
157.6460386657
 30
0.0
 11
193.6456662807
 21
157.6460386657
 31
0.0
  0
LINE
  5
1C5
330
1F
100
AcDbEntity
  8
0
  6
Continuous
 62
     7
370
    25
100
AcDbLine
 10
193.8560825348
 20
159.3960386657
 30
0.0
 11
193.8560825348
 21
159.7377622382
 31
0.0
  0
LINE
  5
1C6
330
1F
100
AcDbEntity
  8
0
  6
Continuous
 62
     7
370
    25
100
AcDbLine
 10
193.8560825348
 20
159.3960386657
 30
0.0
 11
193.6456662807
 21
159.3960386657
 31
0.0
  0
SPLINE
  5
1C7
330
1F
100
AcDbEntity
  8
0
  6
Continuous
 62
     7
370
    25
100
AcDbSpline
210
0.0
220
0.0
230
1.0
 70
     8
 71
     3
 72
    10
 73
     6
 74
     0
 42
0.00000001
 43
0.00000001
 40
0.0
 40
0.0
 40
0.0
 40
0.0
 40
0.3346885391282445
 40
0.7297277800515016
 40
1.0
 40
1.0
 40
1.0
 40
1.0
 10
193.6456662806549
 20
159.3960386656558
 30
0.0
 10
193.643477127579
 20
159.4174621897024
 30
0.0
 10
193.6387040755396
 20
159.4641723061711
 30
0.0
 10
193.6127451172959
 20
159.5205854197088
 30
0.0
 10
193.6080072273586
 20
159.5535209254919
 30
0.0
 10
193.6060825347799
 20
159.5669004519042
 30
0.0
  0
ARC
  5
1C8
330
1F
100
AcDbEntity
  8
0
  6
Continuous
 62
     7
370
    25
100
AcDbCircle
 10
193.6393887848
 20
159.7864949752
 30
0.0
 40
0.2221059678369554
100
AcDbArc
 50
261.3755900327
 51
347.3254947865
  0
LINE
  5
1C9
330
1F
100
AcDbEntity
  8
0
  6
Continuous
 62
     7
370
    25
100
AcDbLine
 10
193.6060825348
 20
159.5669004519
 30
0.0
 11
193.6060825348
 21
159.6460386657
 31
0.0
  0
ARC
  5
1CA
330
1F
100
AcDbEntity
  8
0
  6
Continuous
 62
     7
370
    25
100
AcDbCircle
 10
193.6060825348
 20
159.8960386657
 30
0.0
 40
0.2500000000000284
100
AcDbArc
 50
270.0
 51
0.0
  0
LINE
  5
1CB
330
1F
100
AcDbEntity
  8
0
  6
Continuous
 62
     7
370
    25
100
AcDbLine
 10
193.8560825348
 20
157.6460386657
 30
0.0
 11
193.8560825348
 21
159.3960386657
 31
0.0
  0
LINE
  5
1CC
330
1F
100
AcDbEntity
  8
0
  6
Continuous
 62
     7
370
    25
100
AcDbLine
 10
193.6456662807
 20
157.6460386657
 30
0.0
 11
193.6456662807
 21
159.3960386657
 31
0.0
  0
LINE
  5
1CD
330
1F
100
AcDbEntity
  8
0
  6
Continuous
 62
     7
370
    25
100
AcDbLine
 10
193.8560825348
 20
159.7377622382
 30
0.0
 11
193.8560825348
 21
159.8960386657
 31
0.0
  0
LINE
  5
1CE
330
1F
100
AcDbEntity
  8
0
  6
Continuous
 62
     7
370
    25
100
AcDbLine
 10
193.8560825348
 20
159.8960386657
 30
0.0
 11
194.1050825348
 21
159.8960386657
 31
0.0
  0
LINE
  5
1CF
330
1F
100
AcDbEntity
  8
0
  6
Continuous
 62
     7
370
    25
100
AcDbLine
 10
193.8560825348
 20
157.1460386657
 30
0.0
 11
194.1050825348
 21
157.1460386657
 31
0.0
  0
LINE
  5
1D0
330
1F
100
AcDbEntity
  8
0
  6
Continuous
 62
     7
370
    25
100
AcDbLine
 10
193.8560825348
 20
157.1460386657
 30
0.0
 11
193.8560825348
 21
157.3043150932
 31
0.0
  0
LINE
  5
1D1
330
1F
100
AcDbEntity
  8
0
  6
Continuous
 62
     7
370
    25
100
AcDbLine
 10
193.4060825348
 20
157.6460386657
 30
0.0
 11
193.1560825348
 21
157.6460386657
 31
0.0
  0
LINE
  5
1D2
330
1F
100
AcDbEntity
  8
0
  6
Continuous
 62
     7
370
    25
100
AcDbLine
 10
193.4060825348
 20
157.6460386657
 30
0.0
 11
193.4060825348
 21
157.3960386657
 31
0.0
  0
ARC
  5
1D3
330
1F
100
AcDbEntity
  8
0
  6
Continuous
 62
     7
370
    25
100
AcDbCircle
 10
193.4060825348
 20
157.6460386657
 30
0.0
 40
0.25
100
AcDbArc
 50
180.0
 51
270.0
  0
LINE
  5
1D4
330
1F
100
AcDbEntity
  8
0
  6
Continuous
 62
     7
370
    25
100
AcDbLine
 10
193.4060825348
 20
159.3960386657
 30
0.0
 11
193.1560825348
 21
159.3960386657
 31
0.0
  0
ARC
  5
1D5
330
1F
100
AcDbEntity
  8
0
  6
Continuous
 62
     7
370
    25
100
AcDbCircle
 10
193.4060825348
 20
159.3960386657
 30
0.0
 40
0.25
100
AcDbArc
 50
90.0
 51
180.0
  0
LINE
  5
1D6
330
1F
100
AcDbEntity
  8
0
  6
Continuous
 62
     7
370
    25
100
AcDbLine
 10
193.4060825348
 20
159.6460386657
 30
0.0
 11
193.4060825348
 21
159.3960386657
 31
0.0
  0
LINE
  5
1D7
330
1F
100
AcDbEntity
  8
0
  6
Continuous
 62
     7
370
    25
100
AcDbLine
 10
193.4060825348
 20
159.3960386657
 30
0.0
 11
193.4060825348
 21
157.6460386657
 31
0.0
  0
LINE
  5
1D8
330
1F
100
AcDbEntity
  8
0
  6
Continuous
 62
     7
370
    25
100
AcDbLine
 10
193.1560825348
 20
157.6460386657
 30
0.0
 11
193.1560825348
 21
159.3960386657
 31
0.0
  0
LINE
  5
1D9
330
1F
100
AcDbEntity
  8
0
  6
Continuous
 62
     7
370
    25
100
AcDbLine
 10
193.4060825348
 20
157.6460386657
 30
0.0
 11
193.6456662807
 21
157.6460386657
 31
0.0
  0
LINE
  5
1DA
330
1F
100
AcDbEntity
  8
0
  6
Continuous
 62
     7
370
    25
100
AcDbLine
 10
193.6060825348
 20
157.3960386657
 30
0.0
 11
193.4060825348
 21
157.3960386657
 31
0.0
  0
LINE
  5
1DB
330
1F
100
AcDbEntity
  8
0
  6
Continuous
 62
     7
370
    25
100
AcDbLine
 10
193.6456662807
 20
159.3960386657
 30
0.0
 11
193.4060825348
 21
159.3960386657
 31
0.0
  0
LINE
  5
1DC
330
1F
100
AcDbEntity
  8
0
  6
Continuous
 62
     7
370
    25
100
AcDbLine
 10
193.4060825348
 20
159.6460386657
 30
0.0
 11
193.6060825348
 21
159.6460386657
 31
0.0
  0
LINE
  5
1DD
330
1F
100
AcDbEntity
  8
0
  6
Continuous
 62
     7
370
    25
100
AcDbLine
 10
193.0560825348
 20
158.5210386657
 30
0.0
 11
193.0560825348
 21
158.6080758424
 31
0.0
  0
LINE
  5
1DE
330
1F
100
AcDbEntity
  8
0
  6
Continuous
 62
     7
370
    25
100
AcDbLine
 10
193.0560825348
 20
158.4340014889
 30
0.0
 11
193.0560825348
 21
158.5210386657
 31
0.0
  0
LINE
  5
1DF
330
1F
100
AcDbEntity
  8
0
  6
Continuous
 62
     7
370
    25
100
AcDbLine
 10
228.8985291425
 20
151.9810386657
 30
0.0
 11
228.8985291425
 21
152.2810386657
 31
0.0
  0
LINE
  5
1E0
330
1F
100
AcDbEntity
  8
0
  6
Continuous
 62
     7
370
    25
100
AcDbLine
 10
228.5985291425
 20
151.9810386657
 30
0.0
 11
228.8985291425
 21
151.9810386657
 31
0.0
  0
LINE
  5
1E1
330
1F
100
AcDbEntity
  8
0
  6
Continuous
 62
     7
370
    25
100
AcDbLine
 10
228.5985291425
 20
152.2810386657
 30
0.0
 11
228.5985291425
 21
151.9810386657
 31
0.0
  0
LINE
  5
1E2
330
1F
100
AcDbEntity
  8
0
  6
Continuous
 62
     7
370
    25
100
AcDbLine
 10
228.8985291425
 20
152.2810386657
 30
0.0
 11
228.5985291425
 21
152.2810386657
 31
0.0
  0
LINE
  5
1E3
330
1F
100
AcDbEntity
  8
0
  6
Continuous
 62
     7
370
    25
100
AcDbLine
 10
226.0585291425
 20
152.2810386657
 30
0.0
 11
226.3585291425
 21
152.2810386657
 31
0.0
  0
LINE
  5
1E4
330
1F
100
AcDbEntity
  8
0
  6
Continuous
 62
     7
370
    25
100
AcDbLine
 10
226.0585291425
 20
152.2810386657
 30
0.0
 11
225.8885291425
 21
152.4510386657
 31
0.0
  0
LINE
  5
1E5
330
1F
100
AcDbEntity
  8
0
  6
Continuous
 62
     7
370
    25
100
AcDbLine
 10
226.5285291425
 20
152.4510386657
 30
0.0
 11
225.8885291425
 21
152.4510386657
 31
0.0
  0
LINE
  5
1E6
330
1F
100
AcDbEntity
  8
0
  6
Continuous
 62
     7
370
    25
100
AcDbLine
 10
226.5285291425
 20
152.4510386657
 30
0.0
 11
226.3585291425
 21
152.2810386657
 31
0.0
  0
LINE
  5
1E7
330
1F
100
AcDbEntity
  8
0
  6
Continuous
 62
     7
370
    25
100
AcDbLine
 10
221.2785291425
 20
152.2810386657
 30
0.0
 11
220.9785291425
 21
152.2810386657
 31
0.0
  0
LINE
  5
1E8
330
1F
100
AcDbEntity
  8
0
  6
Continuous
 62
     7
370
    25
100
AcDbLine
 10
220.8085291425
 20
152.4510386657
 30
0.0
 11
220.9785291425
 21
152.2810386657
 31
0.0
  0
LINE
  5
1E9
330
1F
100
AcDbEntity
  8
0
  6
Continuous
 62
     7
370
    25
100
AcDbLine
 10
220.8085291425
 20
152.4510386657
 30
0.0
 11
221.4485291425
 21
152.4510386657
 31
0.0
  0
LINE
  5
1EA
330
1F
100
AcDbEntity
  8
0
  6
Continuous
 62
     7
370
    25
100
AcDbLine
 10
221.2785291425
 20
152.2810386657
 30
0.0
 11
221.4485291425
 21
152.4510386657
 31
0.0
  0
LINE
  5
1EB
330
1F
100
AcDbEntity
  8
0
  6
Continuous
 62
     7
370
    25
100
AcDbLine
 10
220.8085291425
 20
151.8110386657
 30
0.0
 11
220.8085291425
 21
152.4510386657
 31
0.0
  0
LINE
  5
1EC
330
1F
100
AcDbEntity
  8
0
  6
Continuous
 62
     7
370
    25
100
AcDbLine
 10
220.9785291425
 20
152.2810386657
 30
0.0
 11
220.9785291425
 21
151.9810386657
 31
0.0
  0
LINE
  5
1ED
330
1F
100
AcDbEntity
  8
0
  6
Continuous
 62
     7
370
    25
100
AcDbLine
 10
220.9785291425
 20
151.9810386657
 30
0.0
 11
220.8085291425
 21
151.8110386657
 31
0.0
  0
LINE
  5
1EE
330
1F
100
AcDbEntity
  8
0
  6
Continuous
 62
     7
370
    25
100
AcDbLine
 10
220.9785291425
 20
151.9810386657
 30
0.0
 11
221.2785291425
 21
151.9810386657
 31
0.0
  0
LINE
  5
1EF
330
1F
100
AcDbEntity
  8
0
  6
Continuous
 62
     7
370
    25
100
AcDbLine
 10
221.4485291425
 20
151.8110386657
 30
0.0
 11
221.2785291425
 21
151.9810386657
 31
0.0
  0
LINE
  5
1F0
330
1F
100
AcDbEntity
  8
0
  6
Continuous
 62
     7
370
    25
100
AcDbLine
 10
221.4485291425
 20
151.8110386657
 30
0.0
 11
220.8085291425
 21
151.8110386657
 31
0.0
  0
LINE
  5
1F1
330
1F
100
AcDbEntity
  8
0
  6
Continuous
 62
     7
370
    25
100
AcDbLine
 10
233.9785291425
 20
151.9810386657
 30
0.0
 11
233.6785291425
 21
151.9810386657
 31
0.0
  0
LINE
  5
1F2
330
1F
100
AcDbEntity
  8
0
  6
Continuous
 62
     7
370
    25
100
AcDbLine
 10
233.9785291425
 20
151.9810386657
 30
0.0
 11
234.1485291425
 21
151.8110386657
 31
0.0
  0
LINE
  5
1F3
330
1F
100
AcDbEntity
  8
0
  6
Continuous
 62
     7
370
    25
100
AcDbLine
 10
233.5085291425
 20
151.8110386657
 30
0.0
 11
234.1485291425
 21
151.8110386657
 31
0.0
  0
LINE
  5
1F4
330
1F
100
AcDbEntity
  8
0
  6
Continuous
 62
     7
370
    25
100
AcDbLine
 10
233.5085291425
 20
151.8110386657
 30
0.0
 11
233.6785291425
 21
151.9810386657
 31
0.0
  0
LINE
  5
1F5
330
1F
100
AcDbEntity
  8
0
  6
Continuous
 62
     7
370
    25
100
AcDbLine
 10
231.6085291425
 20
152.4510386657
 30
0.0
 11
231.6085291425
 21
151.8110386657
 31
0.0
  0
LINE
  5
1F6
330
1F
100
AcDbEntity
  8
0
  6
Continuous
 62
     7
370
    25
100
AcDbLine
 10
231.6085291425
 20
151.8110386657
 30
0.0
 11
231.4385291425
 21
151.9810386657
 31
0.0
  0
LINE
  5
1F7
330
1F
100
AcDbEntity
  8
0
  6
Continuous
 62
     7
370
    25
100
AcDbLine
 10
231.4385291425
 20
151.9810386657
 30
0.0
 11
231.4385291425
 21
152.2810386657
 31
0.0
  0
LINE
  5
1F8
330
1F
100
AcDbEntity
  8
0
  6
Continuous
 62
     7
370
    25
100
AcDbLine
 10
231.4385291425
 20
152.2810386657
 30
0.0
 11
231.6085291425
 21
152.4510386657
 31
0.0
  0
LINE
  5
1F9
330
1F
100
AcDbEntity
  8
0
  6
Continuous
 62
     7
370
    25
100
AcDbLine
 10
223.5185291425
 20
152.2810386657
 30
0.0
 11
223.5185291425
 21
151.9810386657
 31
0.0
  0
LINE
  5
1FA
330
1F
100
AcDbEntity
  8
0
  6
Continuous
 62
     7
370
    25
100
AcDbLine
 10
223.8185291425
 20
152.2810386657
 30
0.0
 11
223.5185291425
 21
152.2810386657
 31
0.0
  0
LINE
  5
1FB
330
1F
100
AcDbEntity
  8
0
  6
Continuous
 62
     7
370
    25
100
AcDbLine
 10
223.8185291425
 20
151.9810386657
 30
0.0
 11
223.8185291425
 21
152.2810386657
 31
0.0
  0
LINE
  5
1FC
330
1F
100
AcDbEntity
  8
0
  6
Continuous
 62
     7
370
    25
100
AcDbLine
 10
223.5185291425
 20
151.9810386657
 30
0.0
 11
223.8185291425
 21
151.9810386657
 31
0.0
  0
LINE
  5
1FD
330
1F
100
AcDbEntity
  8
0
  6
Continuous
 62
     7
370
    25
100
AcDbLine
 10
233.9785291425
 20
151.9810386657
 30
0.0
 11
233.9785291425
 21
152.2810386657
 31
0.0
  0
LINE
  5
1FE
330
1F
100
AcDbEntity
  8
0
  6
Continuous
 62
     7
370
    25
100
AcDbLine
 10
233.6785291425
 20
152.2810386657
 30
0.0
 11
233.6785291425
 21
151.9810386657
 31
0.0
  0
LINE
  5
1FF
330
1F
100
AcDbEntity
  8
0
  6
Continuous
 62
     7
370
    25
100
AcDbLine
 10
233.6785291425
 20
152.2810386657
 30
0.0
 11
233.9785291425
 21
152.2810386657
 31
0.0
  0
LINE
  5
200
330
1F
100
AcDbEntity
  8
0
  6
Continuous
 62
     7
370
    25
100
AcDbLine
 10
229.0685291425
 20
152.4510386657
 30
0.0
 11
229.0685291425
 21
151.8110386657
 31
0.0
  0
LINE
  5
201
330
1F
100
AcDbEntity
  8
0
  6
Continuous
 62
     7
370
    25
100
AcDbLine
 10
229.0685291425
 20
151.8110386657
 30
0.0
 11
228.8985291425
 21
151.9810386657
 31
0.0
  0
LINE
  5
202
330
1F
100
AcDbEntity
  8
0
  6
Continuous
 62
     7
370
    25
100
AcDbLine
 10
228.8985291425
 20
152.2810386657
 30
0.0
 11
229.0685291425
 21
152.4510386657
 31
0.0
  0
LINE
  5
203
330
1F
100
AcDbEntity
  8
0
  6
Continuous
 62
     7
370
    25
100
AcDbLine
 10
233.6785291425
 20
152.2810386657
 30
0.0
 11
233.5085291425
 21
152.4510386657
 31
0.0
  0
LINE
  5
204
330
1F
100
AcDbEntity
  8
0
  6
Continuous
 62
     7
370
    25
100
AcDbLine
 10
234.1485291425
 20
152.4510386657
 30
0.0
 11
233.5085291425
 21
152.4510386657
 31
0.0
  0
LINE
  5
205
330
1F
100
AcDbEntity
  8
0
  6
Continuous
 62
     7
370
    25
100
AcDbLine
 10
234.1485291425
 20
152.4510386657
 30
0.0
 11
233.9785291425
 21
152.2810386657
 31
0.0
  0
LINE
  5
206
330
1F
100
AcDbEntity
  8
0
  6
Continuous
 62
     7
370
    25
100
AcDbLine
 10
233.5085291425
 20
152.4510386657
 30
0.0
 11
233.5085291425
 21
151.8110386657
 31
0.0
  0
LINE
  5
207
330
1F
100
AcDbEntity
  8
0
  6
Continuous
 62
     7
370
    25
100
AcDbLine
 10
223.9885291425
 20
152.4510386657
 30
0.0
 11
223.9885291425
 21
151.8110386657
 31
0.0
  0
LINE
  5
208
330
1F
100
AcDbEntity
  8
0
  6
Continuous
 62
     7
370
    25
100
AcDbLine
 10
223.9885291425
 20
151.8110386657
 30
0.0
 11
223.8185291425
 21
151.9810386657
 31
0.0
  0
LINE
  5
209
330
1F
100
AcDbEntity
  8
0
  6
Continuous
 62
     7
370
    25
100
AcDbLine
 10
223.8185291425
 20
152.2810386657
 30
0.0
 11
223.9885291425
 21
152.4510386657
 31
0.0
  0
LINE
  5
20A
330
1F
100
AcDbEntity
  8
0
  6
Continuous
 62
     7
370
    25
100
AcDbLine
 10
231.6085291425
 20
151.8110386657
 30
0.0
 11
230.9685291425
 21
151.8110386657
 31
0.0
  0
LINE
  5
20B
330
1F
100
AcDbEntity
  8
0
  6
Continuous
 62
     7
370
    25
100
AcDbLine
 10
231.1385291425
 20
151.9810386657
 30
0.0
 11
230.9685291425
 21
151.8110386657
 31
0.0
  0
LINE
  5
20C
330
1F
100
AcDbEntity
  8
0
  6
Continuous
 62
     7
370
    25
100
AcDbLine
 10
231.1385291425
 20
151.9810386657
 30
0.0
 11
231.4385291425
 21
151.9810386657
 31
0.0
  0
LINE
  5
20D
330
1F
100
AcDbEntity
  8
0
  6
Continuous
 62
     7
370
    25
100
AcDbLine
 10
223.5185291425
 20
151.9810386657
 30
0.0
 11
223.3485291425
 21
151.8110386657
 31
0.0
  0
LINE
  5
20E
330
1F
100
AcDbEntity
  8
0
  6
Continuous
 62
     7
370
    25
100
AcDbLine
 10
223.3485291425
 20
151.8110386657
 30
0.0
 11
223.3485291425
 21
152.4510386657
 31
0.0
  0
LINE
  5
20F
330
1F
100
AcDbEntity
  8
0
  6
Continuous
 62
     7
370
    25
100
AcDbLine
 10
223.3485291425
 20
152.4510386657
 30
0.0
 11
223.5185291425
 21
152.2810386657
 31
0.0
  0
LINE
  5
210
330
1F
100
AcDbEntity
  8
0
  6
Continuous
 62
     7
370
    25
100
AcDbLine
 10
221.4485291425
 20
152.4510386657
 30
0.0
 11
221.4485291425
 21
151.8110386657
 31
0.0
  0
LINE
  5
211
330
1F
100
AcDbEntity
  8
0
  6
Continuous
 62
     7
370
    25
100
AcDbLine
 10
221.2785291425
 20
151.9810386657
 30
0.0
 11
221.2785291425
 21
152.2810386657
 31
0.0
  0
LINE
  5
212
330
1F
100
AcDbEntity
  8
0
  6
Continuous
 62
     7
370
    25
100
AcDbLine
 10
228.4285291425
 20
152.4510386657
 30
0.0
 11
228.5985291425
 21
152.2810386657
 31
0.0
  0
LINE
  5
213
330
1F
100
AcDbEntity
  8
0
  6
Continuous
 62
     7
370
    25
100
AcDbLine
 10
228.4285291425
 20
152.4510386657
 30
0.0
 11
229.0685291425
 21
152.4510386657
 31
0.0
  0
LINE
  5
214
330
1F
100
AcDbEntity
  8
0
  6
Continuous
 62
     7
370
    25
100
AcDbLine
 10
228.4285291425
 20
151.8110386657
 30
0.0
 11
228.4285291425
 21
152.4510386657
 31
0.0
  0
LINE
  5
215
330
1F
100
AcDbEntity
  8
0
  6
Continuous
 62
     7
370
    25
100
AcDbLine
 10
228.5985291425
 20
151.9810386657
 30
0.0
 11
228.4285291425
 21
151.8110386657
 31
0.0
  0
LINE
  5
216
330
1F
100
AcDbEntity
  8
0
  6
Continuous
 62
     7
370
    25
100
AcDbLine
 10
229.0685291425
 20
151.8110386657
 30
0.0
 11
228.4285291425
 21
151.8110386657
 31
0.0
  0
LINE
  5
217
330
1F
100
AcDbEntity
  8
0
  6
Continuous
 62
     7
370
    25
100
AcDbLine
 10
234.1485291425
 20
151.8110386657
 30
0.0
 11
234.1485291425
 21
152.4510386657
 31
0.0
  0
LINE
  5
218
330
1F
100
AcDbEntity
  8
0
  6
Continuous
 62
     7
370
    25
100
AcDbLine
 10
231.4385291425
 20
152.2810386657
 30
0.0
 11
231.1385291425
 21
152.2810386657
 31
0.0
  0
LINE
  5
219
330
1F
100
AcDbEntity
  8
0
  6
Continuous
 62
     7
370
    25
100
AcDbLine
 10
230.9685291425
 20
152.4510386657
 30
0.0
 11
231.1385291425
 21
152.2810386657
 31
0.0
  0
LINE
  5
21A
330
1F
100
AcDbEntity
  8
0
  6
Continuous
 62
     7
370
    25
100
AcDbLine
 10
230.9685291425
 20
152.4510386657
 30
0.0
 11
231.6085291425
 21
152.4510386657
 31
0.0
  0
LINE
  5
21B
330
1F
100
AcDbEntity
  8
0
  6
Continuous
 62
     7
370
    25
100
AcDbLine
 10
231.1385291425
 20
152.2810386657
 30
0.0
 11
231.1385291425
 21
151.9810386657
 31
0.0
  0
LINE
  5
21C
330
1F
100
AcDbEntity
  8
0
  6
Continuous
 62
     7
370
    25
100
AcDbLine
 10
226.3585291425
 20
151.9810386657
 30
0.0
 11
226.3585291425
 21
152.2810386657
 31
0.0
  0
LINE
  5
21D
330
1F
100
AcDbEntity
  8
0
  6
Continuous
 62
     7
370
    25
100
AcDbLine
 10
226.3585291425
 20
151.9810386657
 30
0.0
 11
226.0585291425
 21
151.9810386657
 31
0.0
  0
LINE
  5
21E
330
1F
100
AcDbEntity
  8
0
  6
Continuous
 62
     7
370
    25
100
AcDbLine
 10
226.0585291425
 20
152.2810386657
 30
0.0
 11
226.0585291425
 21
151.9810386657
 31
0.0
  0
LINE
  5
21F
330
1F
100
AcDbEntity
  8
0
  6
Continuous
 62
     7
370
    25
100
AcDbLine
 10
223.3485291425
 20
152.4510386657
 30
0.0
 11
223.9885291425
 21
152.4510386657
 31
0.0
  0
LINE
  5
220
330
1F
100
AcDbEntity
  8
0
  6
Continuous
 62
     7
370
    25
100
AcDbLine
 10
225.8885291425
 20
152.4510386657
 30
0.0
 11
225.8885291425
 21
151.8110386657
 31
0.0
  0
LINE
  5
221
330
1F
100
AcDbEntity
  8
0
  6
Continuous
 62
     7
370
    25
100
AcDbLine
 10
225.8885291425
 20
151.8110386657
 30
0.0
 11
226.0585291425
 21
151.9810386657
 31
0.0
  0
LINE
  5
222
330
1F
100
AcDbEntity
  8
0
  6
Continuous
 62
     7
370
    25
100
AcDbLine
 10
230.9685291425
 20
151.8110386657
 30
0.0
 11
230.9685291425
 21
152.4510386657
 31
0.0
  0
LINE
  5
223
330
1F
100
AcDbEntity
  8
0
  6
Continuous
 62
     7
370
    25
100
AcDbLine
 10
223.9885291425
 20
151.8110386657
 30
0.0
 11
223.3485291425
 21
151.8110386657
 31
0.0
  0
LINE
  5
224
330
1F
100
AcDbEntity
  8
0
  6
Continuous
 62
     7
370
    25
100
AcDbLine
 10
226.3585291425
 20
151.9810386657
 30
0.0
 11
226.5285291425
 21
151.8110386657
 31
0.0
  0
LINE
  5
225
330
1F
100
AcDbEntity
  8
0
  6
Continuous
 62
     7
370
    25
100
AcDbLine
 10
225.8885291425
 20
151.8110386657
 30
0.0
 11
226.5285291425
 21
151.8110386657
 31
0.0
  0
LINE
  5
226
330
1F
100
AcDbEntity
  8
0
  6
Continuous
 62
     7
370
    25
100
AcDbLine
 10
226.5285291425
 20
151.8110386657
 30
0.0
 11
226.5285291425
 21
152.4510386657
 31
0.0
  0
CIRCLE
  5
227
330
1F
100
AcDbEntity
  8
0
  6
Continuous
 62
     7
370
    25
100
AcDbCircle
 10
221.1285291425
 20
152.1310386657
 30
0.0
 40
0.5500000000000398
  0
CIRCLE
  5
228
330
1F
100
AcDbEntity
  8
0
  6
Continuous
 62
     7
370
    25
100
AcDbCircle
 10
221.1285291425
 20
152.1310386657
 30
0.0
 40
1.0
  0
CIRCLE
  5
229
330
1F
100
AcDbEntity
  8
0
  6
Continuous
 62
     7
370
    25
100
AcDbCircle
 10
223.6685291425
 20
152.1310386657
 30
0.0
 40
0.549999999999983
  0
CIRCLE
  5
22A
330
1F
100
AcDbEntity
  8
0
  6
Continuous
 62
     7
370
    25
100
AcDbCircle
 10
223.6685291425
 20
152.1310386657
 30
0.0
 40
1.0
  0
CIRCLE
  5
22B
330
1F
100
AcDbEntity
  8
0
  6
Continuous
 62
     7
370
    25
100
AcDbCircle
 10
226.2085291425
 20
152.1310386657
 30
0.0
 40
0.5500000000000114
  0
CIRCLE
  5
22C
330
1F
100
AcDbEntity
  8
0
  6
Continuous
 62
     7
370
    25
100
AcDbCircle
 10
226.2085291425
 20
152.1310386657
 30
0.0
 40
1.0
  0
CIRCLE
  5
22D
330
1F
100
AcDbEntity
  8
0
  6
Continuous
 62
     7
370
    25
100
AcDbCircle
 10
228.7485291425
 20
152.1310386657
 30
0.0
 40
0.549999999999983
  0
CIRCLE
  5
22E
330
1F
100
AcDbEntity
  8
0
  6
Continuous
 62
     7
370
    25
100
AcDbCircle
 10
228.7485291425
 20
152.1310386657
 30
0.0
 40
1.0
  0
CIRCLE
  5
22F
330
1F
100
AcDbEntity
  8
0
  6
Continuous
 62
     7
370
    25
100
AcDbCircle
 10
231.2885291425
 20
152.1310386657
 30
0.0
 40
0.5500000000000398
  0
CIRCLE
  5
230
330
1F
100
AcDbEntity
  8
0
  6
Continuous
 62
     7
370
    25
100
AcDbCircle
 10
231.2885291425
 20
152.1310386657
 30
0.0
 40
1.0
  0
CIRCLE
  5
231
330
1F
100
AcDbEntity
  8
0
  6
Continuous
 62
     7
370
    25
100
AcDbCircle
 10
233.8285291425
 20
152.1310386657
 30
0.0
 40
0.5500000000000114
  0
CIRCLE
  5
232
330
1F
100
AcDbEntity
  8
0
  6
Continuous
 62
     7
370
    25
100
AcDbCircle
 10
233.8285291425
 20
152.1310386657
 30
0.0
 40
1.0
  0
LINE
  5
233
330
1F
100
AcDbEntity
  8
0
  6
Continuous
 62
     7
370
    25
100
AcDbLine
 10
217.4785291425
 20
149.8110386657
 30
0.0
 11
237.4785291425
 21
149.8110386657
 31
0.0
  0
LINE
  5
234
330
1F
100
AcDbEntity
  8
0
  6
Continuous
 62
     7
370
    25
100
AcDbLine
 10
237.4785291425
 20
161.3110386657
 30
0.0
 11
237.4785291425
 21
149.8110386657
 31
0.0
  0
LINE
  5
235
330
1F
100
AcDbEntity
  8
0
  6
Continuous
 62
     7
370
    25
100
AcDbLine
 10
217.4785291425
 20
161.3110386657
 30
0.0
 11
217.4785291425
 21
149.8110386657
 31
0.0
  0
LINE
  5
236
330
1F
100
AcDbEntity
  8
0
  6
Continuous
 62
     7
370
    25
100
AcDbLine
 10
237.4785291425
 20
161.3110386657
 30
0.0
 11
217.4785291425
 21
161.3110386657
 31
0.0
  0
CIRCLE
  5
237
330
1F
100
AcDbEntity
  8
0
  6
Continuous
 62
     7
370
    25
100
AcDbCircle
 10
227.4785291425
 20
156.6260386657
 30
0.0
 40
0.0870371767752829
  0
LINE
  5
238
330
1F
100
AcDbEntity
  8
0
  6
Continuous
 62
     7
370
    25
100
AcDbLine
 10
226.9185291425
 20
157.7510386657
 30
0.0
 11
228.0385291425
 21
157.7510386657
 31
0.0
  0
LINE
  5
239
330
1F
100
AcDbEntity
  8
0
  6
Continuous
 62
     7
370
    25
100
AcDbLine
 10
228.0385291425
 20
157.7510386657
 30
0.0
 11
228.0385291425
 21
157.5010386657
 31
0.0
  0
LINE
  5
23A
330
1F
100
AcDbEntity
  8
0
  6
Continuous
 62
     7
370
    25
100
AcDbLine
 10
228.0385291425
 20
157.5010386657
 30
0.0
 11
226.9185291425
 21
157.5010386657
 31
0.0
  0
LINE
  5
23B
330
1F
100
AcDbEntity
  8
0
  6
Continuous
 62
     7
370
    25
100
AcDbLine
 10
226.9185291425
 20
157.7510386657
 30
0.0
 11
226.9185291425
 21
157.5010386657
 31
0.0
  0
LINE
  5
23C
330
1F
100
AcDbEntity
  8
0
  6
Continuous
 62
     7
370
    25
100
AcDbLine
 10
228.2885291425
 20
155.7510386657
 30
0.0
 11
228.0385291425
 21
155.7510386657
 31
0.0
  0
ARC
  5
23D
330
1F
100
AcDbEntity
  8
0
  6
Continuous
 62
     7
370
    25
100
AcDbCircle
 10
228.0385291425
 20
155.7510386657
 30
0.0
 40
0.25
100
AcDbArc
 50
270.0
 51
0.0
  0
LINE
  5
23E
330
1F
100
AcDbEntity
  8
0
  6
Continuous
 62
     7
370
    25
100
AcDbLine
 10
228.0385291425
 20
155.7510386657
 30
0.0
 11
228.0385291425
 21
155.5010386657
 31
0.0
  0
LINE
  5
23F
330
1F
100
AcDbEntity
  8
0
  6
Continuous
 62
     7
370
    25
100
AcDbLine
 10
228.0385291425
 20
155.7510386657
 30
0.0
 11
228.0385291425
 21
157.5010386657
 31
0.0
  0
LINE
  5
240
330
1F
100
AcDbEntity
  8
0
  6
Continuous
 62
     7
370
    25
100
AcDbLine
 10
226.9185291425
 20
155.7510386657
 30
0.0
 11
228.0385291425
 21
155.7510386657
 31
0.0
  0
LINE
  5
241
330
1F
100
AcDbEntity
  8
0
  6
Continuous
 62
     7
370
    25
100
AcDbLine
 10
226.9185291425
 20
157.5010386657
 30
0.0
 11
226.9185291425
 21
155.7510386657
 31
0.0
  0
CIRCLE
  5
242
330
1F
100
AcDbEntity
  8
0
  6
Continuous
 62
     7
370
    25
100
AcDbCircle
 10
227.4785291425
 20
156.0310386657
 30
0.0
 40
0.25
  0
LINE
  5
243
330
1F
100
AcDbEntity
  8
0
  6
Continuous
 62
     7
370
    25
100
AcDbLine
 10
226.9185291425
 20
155.7510386657
 30
0.0
 11
226.9185291425
 21
155.5010386657
 31
0.0
  0
ARC
  5
244
330
1F
100
AcDbEntity
  8
0
  6
Continuous
 62
     7
370
    25
100
AcDbCircle
 10
226.9185291425
 20
155.7510386657
 30
0.0
 40
0.25
100
AcDbArc
 50
180.0
 51
270.0
  0
LINE
  5
245
330
1F
100
AcDbEntity
  8
0
  6
Continuous
 62
     7
370
    25
100
AcDbLine
 10
226.9185291425
 20
155.7510386657
 30
0.0
 11
226.6685291425
 21
155.7510386657
 31
0.0
  0
LINE
  5
246
330
1F
100
AcDbEntity
  8
0
  6
Continuous
 62
     7
370
    25
100
AcDbLine
 10
228.2885291425
 20
157.5010386657
 30
0.0
 11
228.2885291425
 21
155.7510386657
 31
0.0
  0
LINE
  5
247
330
1F
100
AcDbEntity
  8
0
  6
Continuous
 62
     7
370
    25
100
AcDbLine
 10
228.2885291425
 20
157.5010386657
 30
0.0
 11
228.0385291425
 21
157.5010386657
 31
0.0
  0
ARC
  5
248
330
1F
100
AcDbEntity
  8
0
  6
Continuous
 62
     7
370
    25
100
AcDbCircle
 10
228.0385291425
 20
157.5010386657
 30
0.0
 40
0.25
100
AcDbArc
 50
0.0
 51
90.0
  0
LINE
  5
249
330
1F
100
AcDbEntity
  8
0
  6
Continuous
 62
     7
370
    25
100
AcDbLine
 10
226.9185291425
 20
157.5010386657
 30
0.0
 11
226.6685291425
 21
157.5010386657
 31
0.0
  0
ARC
  5
24A
330
1F
100
AcDbEntity
  8
0
  6
Continuous
 62
     7
370
    25
100
AcDbCircle
 10
226.9185291425
 20
157.5010386657
 30
0.0
 40
0.25
100
AcDbArc
 50
90.0
 51
180.0
  0
LINE
  5
24B
330
1F
100
AcDbEntity
  8
0
  6
Continuous
 62
     7
370
    25
100
AcDbLine
 10
226.6685291425
 20
155.7510386657
 30
0.0
 11
226.6685291425
 21
157.5010386657
 31
0.0
  0
LINE
  5
24C
330
1F
100
AcDbEntity
  8
0
  6
Continuous
 62
     7
370
    25
100
AcDbLine
 10
228.0385291425
 20
155.5010386657
 30
0.0
 11
226.9185291425
 21
155.5010386657
 31
0.0
  0
LINE
  5
24D
330
1F
100
AcDbEntity
  8
0
  6
Continuous
 62
     7
370
    25
100
AcDbLine
 10
228.4035291425
 20
157.5010386657
 30
0.0
 11
228.4035291425
 21
157.8427622382
 31
0.0
  0
LINE
  5
24E
330
1F
100
AcDbEntity
  8
0
  6
Continuous
 62
     7
370
    25
100
AcDbLine
 10
228.4035291425
 20
157.5010386657
 30
0.0
 11
228.2885291425
 21
157.5010386657
 31
0.0
  0
LINE
  5
24F
330
1F
100
AcDbEntity
  8
0
  6
Continuous
 62
     7
370
    25
100
AcDbLine
 10
228.4035291425
 20
157.8427622382
 30
0.0
 11
228.2210291425
 21
157.6719004519
 31
0.0
  0
LINE
  5
250
330
1F
100
AcDbEntity
  8
0
  6
Continuous
 62
     7
370
    25
100
AcDbLine
 10
226.7360291425
 20
155.5801768794
 30
0.0
 11
226.5535291425
 21
155.4093150932
 31
0.0
  0
LINE
  5
251
330
1F
100
AcDbEntity
  8
0
  6
Continuous
 62
     7
370
    25
100
AcDbLine
 10
226.5535291425
 20
155.7510386657
 30
0.0
 11
226.5535291425
 21
155.4093150932
 31
0.0
  0
LINE
  5
252
330
1F
100
AcDbEntity
  8
0
  6
Continuous
 62
     7
370
    25
100
AcDbLine
 10
226.6685291425
 20
155.7510386657
 30
0.0
 11
226.5535291425
 21
155.7510386657
 31
0.0
  0
LINE
  5
253
330
1F
100
AcDbEntity
  8
0
  6
Continuous
 62
     7
370
    25
100
AcDbLine
 10
228.4035291425
 20
155.4093150932
 30
0.0
 11
228.4035291425
 21
155.7510386657
 31
0.0
  0
LINE
  5
254
330
1F
100
AcDbEntity
  8
0
  6
Continuous
 62
     7
370
    25
100
AcDbLine
 10
228.4035291425
 20
155.4093150932
 30
0.0
 11
228.2210291425
 21
155.5801768794
 31
0.0
  0
LINE
  5
255
330
1F
100
AcDbEntity
  8
0
  6
Continuous
 62
     7
370
    25
100
AcDbLine
 10
228.4035291425
 20
155.7510386657
 30
0.0
 11
228.2885291425
 21
155.7510386657
 31
0.0
  0
LINE
  5
256
330
1F
100
AcDbEntity
  8
0
  6
Continuous
 62
     7
370
    25
100
AcDbLine
 10
226.6685291425
 20
157.5010386657
 30
0.0
 11
226.5535291425
 21
157.5010386657
 31
0.0
  0
LINE
  5
257
330
1F
100
AcDbEntity
  8
0
  6
Continuous
 62
     7
370
    25
100
AcDbLine
 10
226.5535291425
 20
157.8427622382
 30
0.0
 11
226.5535291425
 21
157.5010386657
 31
0.0
  0
LINE
  5
258
330
1F
100
AcDbEntity
  8
0
  6
Continuous
 62
     7
370
    25
100
AcDbLine
 10
226.7360291425
 20
157.6719004519
 30
0.0
 11
226.5535291425
 21
157.8427622382
 31
0.0
  0
ARC
  5
259
330
1F
100
AcDbEntity
  8
0
  6
Continuous
 62
     7
370
    25
100
AcDbCircle
 10
226.9185291425
 20
157.5010386657
 30
0.0
 40
0.500000000000014
100
AcDbArc
 50
90.0
 51
136.8863940541
  0
LINE
  5
25A
330
1F
100
AcDbEntity
  8
0
  6
Continuous
 62
     7
370
    25
100
AcDbLine
 10
226.9185291425
 20
157.7510386657
 30
0.0
 11
226.9185291425
 21
158.0010386657
 31
0.0
  0
ARC
  5
25B
330
1F
100
AcDbEntity
  8
0
  6
Continuous
 62
     7
370
    25
100
AcDbCircle
 10
226.9185291425
 20
155.7510386657
 30
0.0
 40
0.500000000000014
100
AcDbArc
 50
223.1136059459
 51
270.0
  0
LINE
  5
25C
330
1F
100
AcDbEntity
  8
0
  6
Continuous
 62
     7
370
    25
100
AcDbLine
 10
226.9185291425
 20
155.2510386657
 30
0.0
 11
226.9185291425
 21
155.5010386657
 31
0.0
  0
LINE
  5
25D
330
1F
100
AcDbEntity
  8
0
  6
Continuous
 62
     7
370
    25
100
AcDbLine
 10
226.9185291425
 20
155.2510386657
 30
0.0
 11
228.0385291425
 21
155.2510386657
 31
0.0
  0
LINE
  5
25E
330
1F
100
AcDbEntity
  8
0
  6
Continuous
 62
     7
370
    25
100
AcDbLine
 10
228.0385291425
 20
155.2510386657
 30
0.0
 11
228.0385291425
 21
155.5010386657
 31
0.0
  0
LINE
  5
25F
330
1F
100
AcDbEntity
  8
0
  6
Continuous
 62
     7
370
    25
100
AcDbLine
 10
228.0385291425
 20
158.0010386657
 30
0.0
 11
226.9185291425
 21
158.0010386657
 31
0.0
  0
LINE
  5
260
330
1F
100
AcDbEntity
  8
0
  6
Continuous
 62
     7
370
    25
100
AcDbLine
 10
228.0385291425
 20
157.7510386657
 30
0.0
 11
228.0385291425
 21
158.0010386657
 31
0.0
  0
ARC
  5
261
330
1F
100
AcDbEntity
  8
0
  6
Continuous
 62
     7
370
    25
100
AcDbCircle
 10
228.0385291425
 20
157.5010386657
 30
0.0
 40
0.5
100
AcDbArc
 50
43.1136059459
 51
90.0
  0
ARC
  5
262
330
1F
100
AcDbEntity
  8
0
  6
Continuous
 62
     7
370
    25
100
AcDbCircle
 10
228.0385291425
 20
155.7510386657
 30
0.0
 40
0.5
100
AcDbArc
 50
270.0
 51
316.8863940541
  0
LINE
  5
263
330
1F
100
AcDbEntity
  8
0
  6
Continuous
 62
     7
370
    25
100
AcDbLine
 10
226.5535291425
 20
157.5010386657
 30
0.0
 11
226.5535291425
 21
155.7510386657
 31
0.0
  0
LINE
  5
264
330
1F
100
AcDbEntity
  8
0
  6
Continuous
 62
     7
370
    25
100
AcDbLine
 10
228.4035291425
 20
155.7510386657
 30
0.0
 11
228.4035291425
 21
157.5010386657
 31
0.0
  0
LINE
  5
265
330
1F
100
AcDbEntity
  8
0
  6
Continuous
 62
     7
370
    25
100
AcDbLine
 10
228.4035291425
 20
155.2510386657
 30
0.0
 11
228.4035291425
 21
155.4093150932
 31
0.0
  0
LINE
  5
266
330
1F
100
AcDbEntity
  8
0
  6
Continuous
 62
     7
370
    25
100
AcDbLine
 10
228.0385291425
 20
155.2510386657
 30
0.0
 11
228.4035291425
 21
155.2510386657
 31
0.0
  0
LINE
  5
267
330
1F
100
AcDbEntity
  8
0
  6
Continuous
 62
     7
370
    25
100
AcDbLine
 10
228.4035291425
 20
158.0010386657
 30
0.0
 11
228.0385291425
 21
158.0010386657
 31
0.0
  0
LINE
  5
268
330
1F
100
AcDbEntity
  8
0
  6
Continuous
 62
     7
370
    25
100
AcDbLine
 10
228.4035291425
 20
157.8427622382
 30
0.0
 11
228.4035291425
 21
158.0010386657
 31
0.0
  0
LINE
  5
269
330
1F
100
AcDbEntity
  8
0
  6
Continuous
 62
     7
370
    25
100
AcDbLine
 10
226.5535291425
 20
155.4093150932
 30
0.0
 11
226.5535291425
 21
155.2510386657
 31
0.0
  0
LINE
  5
26A
330
1F
100
AcDbEntity
  8
0
  6
Continuous
 62
     7
370
    25
100
AcDbLine
 10
226.5535291425
 20
155.2510386657
 30
0.0
 11
226.9185291425
 21
155.2510386657
 31
0.0
  0
LINE
  5
26B
330
1F
100
AcDbEntity
  8
0
  6
Continuous
 62
     7
370
    25
100
AcDbLine
 10
226.9185291425
 20
158.0010386657
 30
0.0
 11
226.5535291425
 21
158.0010386657
 31
0.0
  0
LINE
  5
26C
330
1F
100
AcDbEntity
  8
0
  6
Continuous
 62
     7
370
    25
100
AcDbLine
 10
226.5535291425
 20
158.0010386657
 30
0.0
 11
226.5535291425
 21
157.8427622382
 31
0.0
  0
ENDSEC
  0
SECTION
  2
OBJECTS
  0
DICTIONARY
  5
C
330
0
100
AcDbDictionary
281
     1
  3
ACAD_GROUP
350
D
  3
ACAD_LAYOUT
350
1A
  3
ACAD_MLINESTYLE
350
17
  3
ACAD_PLOTSETTINGS
350
19
  3
ACAD_PLOTSTYLENAME
350
E
  3
ACAD_SCALELIST
350
47
  3
DWGPROPS
350
26D
  0
DICTIONARY
  5
D
102
{ACAD_REACTORS
330
C
102
}
330
C
100
AcDbDictionary
281
     1
  0
DICTIONARY
  5
1A
102
{ACAD_REACTORS
330
C
102
}
330
C
100
AcDbDictionary
281
     1
  3
Layout1
350
1E
  3
Layout2
350
26
  3
Model
350
22
  0
DICTIONARY
  5
17
102
{ACAD_REACTORS
330
C
102
}
330
C
100
AcDbDictionary
281
     1
  3
Standard
350
18
  0
DICTIONARY
  5
19
102
{ACAD_REACTORS
330
C
102
}
330
C
100
AcDbDictionary
281
     1
  0
ACDBDICTIONARYWDFLT
  5
E
102
{ACAD_REACTORS
330
C
102
}
330
C
100
AcDbDictionary
281
     1
  3
Normal
350
F
100
AcDbDictionaryWithDefault
340
F
  0
DICTIONARY
  5
47
102
{ACAD_REACTORS
330
C
102
}
330
C
100
AcDbDictionary
281
     1
  3
A0
350
48
  3
A1
350
49
  3
A2
350
4A
  3
A3
350
4B
  3
A4
350
4C
  3
A5
350
4D
  3
A6
350
4E
  3
A7
350
4F
  3
A8
350
50
  3
A9
350
51
  3
B0
350
52
  3
B1
350
53
  3
B2
350
54
  3
B3
350
55
  3
B4
350
56
  3
B5
350
57
  3
B6
350
58
  0
XRECORD
  5
26D
102
{ACAD_REACTORS
330
C
102
}
330
C
100
AcDbXrecord
280
     1
  1
DWGPROPS COOKIE
  2

  3

  4

  6

  7

  8
Alinf
  9

300
=
301
=
302
=
303
=
304
=
305
=
306
=
307
=
308
=
309
=
 40
0.0
 41
2460467.040521933
 42
2460467.040522234
  1

 90
        0
  0
LAYOUT
  5
1E
102
{ACAD_REACTORS
330
1A
102
}
330
1A
100
AcDbPlotSettings
  1

  2
none_device
  4

  6

 40
0.0
 41
0.0
 42
0.0
 43
0.0
 44
0.0
 45
0.0
 46
0.0
 47
0.0
 48
0.0
 49
0.0
140
0.0
141
0.0
142
1.0
143
1.0
 70
   688
 72
     1
 73
     0
 74
     5
  7

 75
    16
147
1.0
148
0.0
149
0.0
100
AcDbLayout
  1
Layout1
 70
     1
 71
     1
 10
0.0
 20
0.0
 11
420.0
 21
297.0
 12
0.0
 22
0.0
 32
0.0
 14
1.0000000000E+20
 24
1.0000000000E+20
 34
1.0000000000E+20
 15
-1.0000000000E+20
 25
-1.0000000000E+20
 35
-1.0000000000E+20
146
0.0
 13
0.0
 23
0.0
 33
0.0
 16
1.0
 26
0.0
 36
0.0
 17
0.0
 27
1.0
 37
0.0
 76
     0
330
1B
  0
LAYOUT
  5
26
102
{ACAD_REACTORS
330
1A
102
}
330
1A
100
AcDbPlotSettings
  1

  2
none_device
  4

  6

 40
0.0
 41
0.0
 42
0.0
 43
0.0
 44
0.0
 45
0.0
 46
0.0
 47
0.0
 48
0.0
 49
0.0
140
0.0
141
0.0
142
1.0
143
1.0
 70
   688
 72
     1
 73
     0
 74
     5
  7

 75
    16
147
1.0
148
0.0
149
0.0
100
AcDbLayout
  1
Layout2
 70
     1
 71
     2
 10
0.0
 20
0.0
 11
0.0
 21
0.0
 12
0.0
 22
0.0
 32
0.0
 14
0.0
 24
0.0
 34
0.0
 15
0.0
 25
0.0
 35
0.0
146
0.0
 13
0.0
 23
0.0
 33
0.0
 16
1.0
 26
0.0
 36
0.0
 17
0.0
 27
1.0
 37
0.0
 76
     0
330
23
  0
LAYOUT
  5
22
102
{ACAD_REACTORS
330
1A
102
}
330
1A
100
AcDbPlotSettings
  1

  2
none_device
  4
Letter_(8.50_x_11.00_Inches)
  6

 40
6.35
 41
6.35
 42
6.35000508
 43
6.35000508
 44
215.9
 45
279.4
 46
0.0
 47
0.0
 48
0.0
 49
0.0
140
0.0
141
0.0
142
1.0
143
1.0
 70
  1712
 72
     1
 73
     0
 74
     0
  7

 75
     0
147
1.0
148
0.0
149
0.0
100
AcDbLayout
  1
Model
 70
     1
 71
     0
 10
0.0
 20
0.0
 11
431.8
 21
279.4
 12
0.0
 22
0.0
 32
0.0
 14
0.0
 24
0.0
 34
0.0
 15
431.8
 25
279.4
 35
0.0
146
0.0
 13
0.0
 23
0.0
 33
0.0
 16
1.0
 26
0.0
 36
0.0
 17
0.0
 27
1.0
 37
0.0
 76
     0
330
1F
331
29
  0
MLINESTYLE
  5
18
102
{ACAD_REACTORS
330
17
102
}
330
17
100
AcDbMlineStyle
  2
Standard
 70
     0
  3

 62
   256
 51
90.0
 52
90.0
 71
     2
 49
0.5
 62
   256
  6
BYLAYER
 49
-0.5
 62
   256
  6
BYLAYER
  0
ACDBPLACEHOLDER
  5
F
102
{ACAD_REACTORS
330
E
102
}
330
E
  0
SCALE
  5
48
102
{ACAD_REACTORS
330
47
102
}
330
47
100
AcDbScale
 70
     0
300
1:1
140
1.0
141
1.0
290
     1
  0
SCALE
  5
49
102
{ACAD_REACTORS
330
47
102
}
330
47
100
AcDbScale
 70
     0
300
1:2
140
1.0
141
2.0
290
     0
  0
SCALE
  5
4A
102
{ACAD_REACTORS
330
47
102
}
330
47
100
AcDbScale
 70
     0
300
1:4
140
1.0
141
4.0
290
     0
  0
SCALE
  5
4B
102
{ACAD_REACTORS
330
47
102
}
330
47
100
AcDbScale
 70
     0
300
1:5
140
1.0
141
5.0
290
     0
  0
SCALE
  5
4C
102
{ACAD_REACTORS
330
47
102
}
330
47
100
AcDbScale
 70
     0
300
1:8
140
1.0
141
8.0
290
     0
  0
SCALE
  5
4D
102
{ACAD_REACTORS
330
47
102
}
330
47
100
AcDbScale
 70
     0
300
1:10
140
1.0
141
10.0
290
     0
  0
SCALE
  5
4E
102
{ACAD_REACTORS
330
47
102
}
330
47
100
AcDbScale
 70
     0
300
1:16
140
1.0
141
16.0
290
     0
  0
SCALE
  5
4F
102
{ACAD_REACTORS
330
47
102
}
330
47
100
AcDbScale
 70
     0
300
1:20
140
1.0
141
20.0
290
     0
  0
SCALE
  5
50
102
{ACAD_REACTORS
330
47
102
}
330
47
100
AcDbScale
 70
     0
300
1:30
140
1.0
141
30.0
290
     0
  0
SCALE
  5
51
102
{ACAD_REACTORS
330
47
102
}
330
47
100
AcDbScale
 70
     0
300
1:40
140
1.0
141
40.0
290
     0
  0
SCALE
  5
52
102
{ACAD_REACTORS
330
47
102
}
330
47
100
AcDbScale
 70
     0
300
1:50
140
1.0
141
50.0
290
     0
  0
SCALE
  5
53
102
{ACAD_REACTORS
330
47
102
}
330
47
100
AcDbScale
 70
     0
300
1:100
140
1.0
141
100.0
290
     0
  0
SCALE
  5
54
102
{ACAD_REACTORS
330
47
102
}
330
47
100
AcDbScale
 70
     0
300
2:1
140
2.0
141
1.0
290
     0
  0
SCALE
  5
55
102
{ACAD_REACTORS
330
47
102
}
330
47
100
AcDbScale
 70
     0
300
4:1
140
4.0
141
1.0
290
     0
  0
SCALE
  5
56
102
{ACAD_REACTORS
330
47
102
}
330
47
100
AcDbScale
 70
     0
300
8:1
140
8.0
141
1.0
290
     0
  0
SCALE
  5
57
102
{ACAD_REACTORS
330
47
102
}
330
47
100
AcDbScale
 70
     0
300
10:1
140
10.0
141
1.0
290
     0
  0
SCALE
  5
58
102
{ACAD_REACTORS
330
47
102
}
330
47
100
AcDbScale
 70
     0
300
100:1
140
100.0
141
1.0
290
     0
  0
ENDSEC
  0
EOF
